<svg width="61" height="61" viewBox="0 0 61 61" fill="none" xmlns="http://www.w3.org/2000/svg">
<g filter="url(#filter0_dd_2202_12266)">
<circle cx="30.5" cy="26.5" r="22" stroke="#0C3F54"/>
<path d="M35.6698 15C35.5265 15 35.389 15.0569 35.2877 15.1583C35.1864 15.2596 35.1295 15.397 35.1295 15.5403V16.1099H21.0807V15.5403C21.0807 15.397 21.0237 15.2596 20.9224 15.1583C20.8211 15.0569 20.6836 15 20.5403 15C20.397 15 20.2596 15.0569 20.1583 15.1583C20.0569 15.2596 20 15.397 20 15.5403V17.7017C20 17.845 20.0569 17.9824 20.1583 18.0838C20.2596 18.1851 20.397 18.242 20.5403 18.242C20.6836 18.242 20.8211 18.1851 20.9224 18.0838C21.0237 17.9824 21.0807 17.845 21.0807 17.7017V17.1905H35.1295V17.7017C35.1295 17.845 35.1864 17.9824 35.2877 18.0838C35.389 18.1851 35.5265 18.242 35.6698 18.242C35.8131 18.242 35.9505 18.1851 36.0519 18.0838C36.1532 17.9824 36.2101 17.845 36.2101 17.7017V15.5403C36.2101 15.397 36.1532 15.2596 36.0519 15.1583C35.9505 15.0569 35.8131 15 35.6698 15Z" fill="#0C3F54"/>
<path d="M41.0728 35.5328H40.5033V21.484H41.0728C41.2161 21.484 41.3535 21.4271 41.4549 21.3257C41.5562 21.2244 41.6131 21.087 41.6131 20.9437C41.6131 20.8004 41.5562 20.6629 41.4549 20.5616C41.3535 20.4602 41.2161 20.4033 41.0728 20.4033H38.9114C38.7681 20.4033 38.6307 20.4602 38.5294 20.5616C38.428 20.6629 38.3711 20.8004 38.3711 20.9437C38.3711 21.087 38.428 21.2244 38.5294 21.3257C38.6307 21.4271 38.7681 21.484 38.9114 21.484H39.4226V35.5328H38.9114C38.7681 35.5328 38.6307 35.5897 38.5294 35.691C38.428 35.7924 38.3711 35.9298 38.3711 36.0731C38.3711 36.2164 38.428 36.3539 38.5294 36.4552C38.6307 36.5565 38.7681 36.6135 38.9114 36.6135H41.0728C41.2161 36.6135 41.3535 36.5565 41.4549 36.4552C41.5562 36.3539 41.6131 36.2164 41.6131 36.0731C41.6131 35.9298 41.5562 35.7924 41.4549 35.691C41.3535 35.5897 41.2161 35.5328 41.0728 35.5328Z" fill="#0C3F54"/>
<rect x="20" y="19.8633" width="16.2101" height="17.2908" fill="#0C3F54"/>
</g>
<defs>
<filter id="filter0_dd_2202_12266" x="0" y="0" width="61" height="61" filterUnits="userSpaceOnUse" color-interpolation-filters="sRGB">
<feFlood flood-opacity="0" result="BackgroundImageFix"/>
<feColorMatrix in="SourceAlpha" type="matrix" values="0 0 0 0 0 0 0 0 0 0 0 0 0 0 0 0 0 0 127 0" result="hardAlpha"/>
<feOffset dy="4"/>
<feGaussianBlur stdDeviation="4"/>
<feColorMatrix type="matrix" values="0 0 0 0 0 0 0 0 0 0 0 0 0 0 0 0 0 0 0.04 0"/>
<feBlend mode="normal" in2="BackgroundImageFix" result="effect1_dropShadow_2202_12266"/>
<feColorMatrix in="SourceAlpha" type="matrix" values="0 0 0 0 0 0 0 0 0 0 0 0 0 0 0 0 0 0 127 0" result="hardAlpha"/>
<feOffset/>
<feGaussianBlur stdDeviation="2"/>
<feComposite in2="hardAlpha" operator="out"/>
<feColorMatrix type="matrix" values="0 0 0 0 0 0 0 0 0 0 0 0 0 0 0 0 0 0 0.04 0"/>
<feBlend mode="normal" in2="effect1_dropShadow_2202_12266" result="effect2_dropShadow_2202_12266"/>
<feBlend mode="normal" in="SourceGraphic" in2="effect2_dropShadow_2202_12266" result="shape"/>
</filter>
</defs>
</svg>
