<svg width="65" height="66" viewBox="0 0 65 66" fill="none" xmlns="http://www.w3.org/2000/svg">
<circle cx="32.5" cy="33.4619" r="32" stroke="black"/>
<path d="M31.626 42.4656V42.0251L31.1891 41.9696C26.3253 41.3512 22.1949 37.8778 20.8689 33.0625L20.8686 33.0615C20.4681 31.6187 20.3904 29.9652 20.653 28.1367L20.653 28.1363L22.037 18.4438C22.037 18.4438 22.037 18.4438 22.037 18.4437C22.0746 18.1817 22.2054 17.9421 22.4054 17.7687C22.6054 17.5954 22.8613 17.5 23.126 17.5H23.126H42.326H42.3261C42.5908 17.5 42.8466 17.5954 43.0467 17.7687C43.2467 17.9421 43.3775 18.1818 43.4151 18.4438L44.8007 28.1379L44.8007 28.1383C45.0632 29.9651 44.9856 31.6187 44.585 33.0632L44.5848 33.0639C43.2573 37.8777 39.1267 41.3512 34.263 41.9696L33.826 42.0251V42.4656V45.8V46.3H34.326H37.026V48.5H28.426V46.3H31.126H31.626V45.8V42.4656ZM41.4338 20.1295L41.3726 19.7H40.9388H24.5132H24.0795L24.0183 20.1293L23.1047 26.5293L23.0232 27.1H23.5996H41.8508H42.4271L42.3458 26.5295L41.4338 20.1295Z" fill="#0C3F54" stroke="black"/>
</svg>
