<svg width="61" height="61" viewBox="0 0 61 61" fill="none" xmlns="http://www.w3.org/2000/svg">
<g filter="url(#filter0_dd_2202_12291)">
<circle cx="30.5" cy="26.5" r="22" stroke="#0C3F54"/>
<g clip-path="url(#clip0_2202_12291)">
<path d="M20.3846 31.6151C20.3858 32.1965 20.5098 32.771 20.7484 33.301C20.987 33.8311 21.3349 34.3048 21.7692 34.6912V36.4613C21.7692 36.6449 21.8422 36.821 21.972 36.9508C22.1018 37.0807 22.2779 37.1536 22.4615 37.1536H23.8462C24.0298 37.1536 24.2059 37.0807 24.3357 36.9508C24.4655 36.821 24.5385 36.6449 24.5385 36.4613V35.769H35.6154V36.4613C35.6154 36.6449 35.6883 36.821 35.8182 36.9508C35.948 37.0807 36.1241 37.1536 36.3077 37.1536H37.6923C37.8759 37.1536 38.052 37.0807 38.1818 36.9508C38.3117 36.821 38.3846 36.6449 38.3846 36.4613V34.6912C38.819 34.3048 39.1669 33.8311 39.4055 33.301C39.6441 32.771 39.768 32.1965 39.7692 31.6151V29.5382H20.3846V31.6151ZM40.4615 26.0767H22.4615V17.9962C22.4619 17.8145 22.5161 17.6369 22.6173 17.486C22.7185 17.3351 22.862 17.2175 23.03 17.148C23.1979 17.0786 23.3826 17.0605 23.5608 17.0959C23.739 17.1313 23.9028 17.2187 24.0313 17.3471L24.8651 18.1805C24.297 19.4734 24.5359 20.7381 25.2381 21.6303L25.2308 21.6377C25.1014 21.7675 25.0288 21.9432 25.0288 22.1264C25.0288 22.3096 25.1014 22.4854 25.2308 22.6151L25.7201 23.1045C25.7844 23.1688 25.8608 23.2198 25.9448 23.2546C26.0288 23.2894 26.1188 23.3073 26.2097 23.3073C26.3007 23.3073 26.3907 23.2894 26.4747 23.2546C26.5587 23.2198 26.635 23.1688 26.6993 23.1045L31.2586 18.5452C31.3229 18.481 31.3739 18.4046 31.4087 18.3206C31.4435 18.2366 31.4614 18.1466 31.4614 18.0556C31.4614 17.9647 31.4435 17.8747 31.4087 17.7907C31.3739 17.7067 31.3229 17.6303 31.2586 17.5661L30.7692 17.0767C30.6394 16.9469 30.4634 16.8741 30.2799 16.8741C30.0963 16.8741 29.9203 16.9469 29.7905 17.0767L29.7831 17.084C28.8909 16.3818 27.627 16.1429 26.3333 16.7111L25.4999 15.8773C25.0808 15.4582 24.5469 15.1727 23.9656 15.0571C23.3844 14.9415 22.7819 15.0008 22.2343 15.2276C21.6868 15.4544 21.2188 15.8385 20.8895 16.3313C20.5603 16.8241 20.3846 17.4035 20.3846 17.9962V26.0767H19.6923C19.5087 26.0767 19.3326 26.1496 19.2028 26.2795C19.0729 26.4093 19 26.5854 19 26.769V27.4613C19 27.6449 19.0729 27.821 19.2028 27.9508C19.3326 28.0807 19.5087 28.1536 19.6923 28.1536H40.4615C40.6452 28.1536 40.8212 28.0807 40.9511 27.9508C41.0809 27.821 41.1538 27.6449 41.1538 27.4613V26.769C41.1538 26.5854 41.0809 26.4093 40.9511 26.2795C40.8212 26.1496 40.6452 26.0767 40.4615 26.0767Z" fill="#0C3F54"/>
</g>
</g>
<defs>
<filter id="filter0_dd_2202_12291" x="0" y="0" width="61" height="61" filterUnits="userSpaceOnUse" color-interpolation-filters="sRGB">
<feFlood flood-opacity="0" result="BackgroundImageFix"/>
<feColorMatrix in="SourceAlpha" type="matrix" values="0 0 0 0 0 0 0 0 0 0 0 0 0 0 0 0 0 0 127 0" result="hardAlpha"/>
<feOffset dy="4"/>
<feGaussianBlur stdDeviation="4"/>
<feColorMatrix type="matrix" values="0 0 0 0 0 0 0 0 0 0 0 0 0 0 0 0 0 0 0.04 0"/>
<feBlend mode="normal" in2="BackgroundImageFix" result="effect1_dropShadow_2202_12291"/>
<feColorMatrix in="SourceAlpha" type="matrix" values="0 0 0 0 0 0 0 0 0 0 0 0 0 0 0 0 0 0 127 0" result="hardAlpha"/>
<feOffset/>
<feGaussianBlur stdDeviation="2"/>
<feComposite in2="hardAlpha" operator="out"/>
<feColorMatrix type="matrix" values="0 0 0 0 0 0 0 0 0 0 0 0 0 0 0 0 0 0 0.04 0"/>
<feBlend mode="normal" in2="effect1_dropShadow_2202_12291" result="effect2_dropShadow_2202_12291"/>
<feBlend mode="normal" in="SourceGraphic" in2="effect2_dropShadow_2202_12291" result="shape"/>
</filter>
<clipPath id="clip0_2202_12291">
<rect width="22.1538" height="22.1538" fill="white" transform="translate(19 15)"/>
</clipPath>
</defs>
</svg>
