<svg width="61" height="61" viewBox="0 0 61 61" fill="none" xmlns="http://www.w3.org/2000/svg">
<g filter="url(#filter0_dd_2202_12286)">
<circle cx="30.5" cy="26.5" r="22" stroke="#0C3F54"/>
<path d="M25.0923 26.6462C26.6192 26.6462 27.8615 25.4038 27.8615 23.8769C27.8615 22.35 26.6192 21.1077 25.0923 21.1077C23.5654 21.1077 22.3231 22.35 22.3231 23.8769C22.3231 25.4038 23.5654 26.6462 25.0923 26.6462ZM37.2769 22.2154H29.5231C29.2171 22.2154 28.9692 22.4632 28.9692 22.7692V27.7538H21.2154V20.5538C21.2154 20.2478 20.9675 20 20.6615 20H19.5538C19.2478 20 19 20.2478 19 20.5538V32.7385C19 33.0445 19.2478 33.2923 19.5538 33.2923H20.6615C20.9675 33.2923 21.2154 33.0445 21.2154 32.7385V31.0769H38.9385V32.7385C38.9385 33.0445 39.1863 33.2923 39.4923 33.2923H40.6C40.906 33.2923 41.1538 33.0445 41.1538 32.7385V26.0923C41.1538 23.951 39.4182 22.2154 37.2769 22.2154Z" fill="#0C3F54"/>
</g>
<defs>
<filter id="filter0_dd_2202_12286" x="0" y="0" width="61" height="61" filterUnits="userSpaceOnUse" color-interpolation-filters="sRGB">
<feFlood flood-opacity="0" result="BackgroundImageFix"/>
<feColorMatrix in="SourceAlpha" type="matrix" values="0 0 0 0 0 0 0 0 0 0 0 0 0 0 0 0 0 0 127 0" result="hardAlpha"/>
<feOffset dy="4"/>
<feGaussianBlur stdDeviation="4"/>
<feColorMatrix type="matrix" values="0 0 0 0 0 0 0 0 0 0 0 0 0 0 0 0 0 0 0.04 0"/>
<feBlend mode="normal" in2="BackgroundImageFix" result="effect1_dropShadow_2202_12286"/>
<feColorMatrix in="SourceAlpha" type="matrix" values="0 0 0 0 0 0 0 0 0 0 0 0 0 0 0 0 0 0 127 0" result="hardAlpha"/>
<feOffset/>
<feGaussianBlur stdDeviation="2"/>
<feComposite in2="hardAlpha" operator="out"/>
<feColorMatrix type="matrix" values="0 0 0 0 0 0 0 0 0 0 0 0 0 0 0 0 0 0 0.04 0"/>
<feBlend mode="normal" in2="effect1_dropShadow_2202_12286" result="effect2_dropShadow_2202_12286"/>
<feBlend mode="normal" in="SourceGraphic" in2="effect2_dropShadow_2202_12286" result="shape"/>
</filter>
</defs>
</svg>
