<svg width="65" height="66" viewBox="0 0 65 66" fill="none" xmlns="http://www.w3.org/2000/svg">
<circle cx="32.5" cy="33.4619" r="32" stroke="black"/>
<mask id="path-2-inside-1_2202_11495" fill="white">
<path fill-rule="evenodd" clip-rule="evenodd" d="M32.2501 17.0706C31.8706 17.1437 31.8892 17.2626 32.4167 18.1311C32.8259 18.8046 32.8489 18.8902 32.6691 19.0701C32.387 19.3522 32.2889 19.8507 32.4721 20.0714C32.6765 20.3178 32.8899 20.3081 33.202 20.0382C33.6474 19.653 33.6391 19.3551 33.1606 18.5605C32.6925 17.7832 32.7187 17.618 33.3111 17.6138C33.7582 17.6106 33.9789 17.745 34.2982 18.2147C34.5998 18.6588 34.5999 18.6606 34.3549 18.9721C33.9661 19.4664 34.0929 20.1328 34.5756 20.1328C34.8557 20.1328 35.2437 19.6448 35.2437 19.2926C35.2437 18.9074 34.2076 17.1724 33.9091 17.0579C33.6936 16.9751 32.7064 16.9827 32.2501 17.0706ZM22.7957 17.6434C22.4679 17.9934 22.0995 18.8423 21.8852 19.7408C21.4418 21.6009 22.2598 23.7472 23.8845 24.9862L24.496 25.4526L24.444 27.4248C24.3992 29.1274 24.4317 29.5866 24.6815 30.7835L24.971 32.17L26.5301 32.2056C27.8751 32.2362 28.0792 32.215 28.0164 32.0515C27.8639 31.6539 28.2051 31.1327 28.9998 30.5491C29.7302 30.0128 29.8164 29.9007 29.9392 29.3285C30.0136 28.982 30.2234 28.4042 30.4056 28.0446L30.7369 27.3909L30.9735 27.6832C31.2702 28.0495 31.2698 28.2189 30.9714 28.8034C30.7514 29.2342 30.0481 29.9499 28.697 31.1179C28.3024 31.459 28.1753 31.655 28.2063 31.8742C28.2457 32.1519 28.3084 32.1723 29.2263 32.2068L30.2044 32.2436L31.3201 31.1354C32.2337 30.2282 32.4869 29.8901 32.717 29.271C33.2167 27.9256 32.7889 26.6902 31.535 25.8577C30.9672 25.4807 30.5079 25.3332 28.486 24.8792C27.1767 24.5852 25.9636 24.2678 25.7903 24.1739C25.1172 23.8095 24.3116 23.0207 23.9571 22.3793C23.4487 21.4594 23.4413 20.2994 23.937 19.1597C24.3554 18.1971 24.3583 18.0591 23.9683 17.6692C23.5826 17.2835 23.1419 17.2738 22.7957 17.6434ZM27.9331 18.2318C26.8495 18.458 25.981 19.1727 25.5147 20.2221C25.3851 20.5138 25.2239 20.7866 25.1566 20.8283C25.0891 20.8699 25.034 21.2055 25.034 21.5743C25.034 22.3544 25.2394 22.629 25.6562 22.4059C25.8685 22.2923 25.9164 22.1446 25.9164 21.6031C25.9164 21.238 25.8624 20.8855 25.7965 20.8196C25.5985 20.6216 26.0868 19.7182 26.6546 19.2322C27.7623 18.2839 29.1915 18.264 30.3923 19.18C31.0943 19.7153 31.3198 20.2857 31.2443 21.3338C31.1935 22.0374 31.2207 22.2533 31.3764 22.3825C31.5241 22.5052 31.6361 22.5108 31.8324 22.4059C32.046 22.2915 32.0925 22.1447 32.0925 21.5842C32.0925 21.1571 32.0308 20.8638 31.9275 20.8008C31.8368 20.7453 31.6872 20.5133 31.595 20.2852C31.0067 18.8287 29.3971 17.9262 27.9331 18.2318ZM27.4919 19.177C26.698 19.5314 26.0424 20.5623 26.0424 21.4562C26.0424 23.2962 28.0633 24.4892 29.7094 23.6212C31.4578 22.699 31.4496 20.1442 29.6954 19.2493C29.1212 18.9564 28.0639 18.9217 27.4919 19.177ZM19.236 32.9893C19.236 33.2071 19.1519 33.2414 18.618 33.2414H18L18.0193 41.0877L18.0386 48.934L26.8932 48.9663L35.7478 48.9987V41.1201V33.2414H34.5504C33.4371 33.2414 33.353 33.2238 33.353 32.9893C33.353 32.7421 33.2689 32.7372 29.0675 32.7372C24.866 32.7372 24.782 32.7421 24.782 32.9893C24.782 33.219 24.6979 33.2414 23.8366 33.2414C22.9754 33.2414 22.8913 33.219 22.8913 32.9893C22.8913 32.7852 22.8072 32.7372 22.4501 32.7372C22.093 32.7372 22.009 32.7852 22.009 32.9893C22.009 33.1573 21.9249 33.2414 21.7569 33.2414C21.5889 33.2414 21.5048 33.1573 21.5048 32.9893C21.5048 32.7852 21.4207 32.7372 21.0636 32.7372C20.7066 32.7372 20.6225 32.7852 20.6225 32.9893C20.6225 33.1611 20.5384 33.2414 20.3585 33.2414C20.2007 33.2414 20.0683 33.1402 20.0288 32.9893C19.9821 32.8107 19.8569 32.7372 19.5994 32.7372C19.3201 32.7372 19.236 32.7955 19.236 32.9893ZM37.0083 40.9947V49L41.7034 48.967L46.3986 48.934L46.4239 41.3713C46.4378 37.2118 46.4212 33.6242 46.3868 33.399L46.3241 32.9893H41.6663H37.0083V40.9947ZM43.0193 34.698C43.6629 34.9586 44.5164 35.8338 44.8238 36.5482C45.0536 37.0822 45.0939 37.3598 45.0437 38.0602C44.8365 40.9576 41.3479 42.2322 39.2927 40.1615C37.7995 38.6568 38.1386 36.0097 39.9616 34.9415C40.8988 34.3922 42.04 34.3013 43.0193 34.698ZM41.1047 36.3867C40.63 36.5831 40.2582 37.1137 40.2009 37.6767C40.019 39.4637 42.4799 40.0436 43.1211 38.3647C43.2935 37.9131 43.299 37.7644 43.1591 37.3396C42.8838 36.5043 41.9112 36.0531 41.1047 36.3867ZM42.6548 42.965C44.0789 43.6544 44.4578 45.6088 43.4008 46.8126C41.8365 48.5943 39.025 47.5683 39.025 45.2156C39.025 43.3323 40.9491 42.1393 42.6548 42.965ZM40.7209 44.3907C40.0153 45.0961 40.5209 46.35 41.511 46.35C42.089 46.35 42.6803 45.7764 42.6803 45.2156C42.6803 44.261 41.3927 43.7187 40.7209 44.3907Z"/>
</mask>
<path fill-rule="evenodd" clip-rule="evenodd" d="M32.2501 17.0706C31.8706 17.1437 31.8892 17.2626 32.4167 18.1311C32.8259 18.8046 32.8489 18.8902 32.6691 19.0701C32.387 19.3522 32.2889 19.8507 32.4721 20.0714C32.6765 20.3178 32.8899 20.3081 33.202 20.0382C33.6474 19.653 33.6391 19.3551 33.1606 18.5605C32.6925 17.7832 32.7187 17.618 33.3111 17.6138C33.7582 17.6106 33.9789 17.745 34.2982 18.2147C34.5998 18.6588 34.5999 18.6606 34.3549 18.9721C33.9661 19.4664 34.0929 20.1328 34.5756 20.1328C34.8557 20.1328 35.2437 19.6448 35.2437 19.2926C35.2437 18.9074 34.2076 17.1724 33.9091 17.0579C33.6936 16.9751 32.7064 16.9827 32.2501 17.0706ZM22.7957 17.6434C22.4679 17.9934 22.0995 18.8423 21.8852 19.7408C21.4418 21.6009 22.2598 23.7472 23.8845 24.9862L24.496 25.4526L24.444 27.4248C24.3992 29.1274 24.4317 29.5866 24.6815 30.7835L24.971 32.17L26.5301 32.2056C27.8751 32.2362 28.0792 32.215 28.0164 32.0515C27.8639 31.6539 28.2051 31.1327 28.9998 30.5491C29.7302 30.0128 29.8164 29.9007 29.9392 29.3285C30.0136 28.982 30.2234 28.4042 30.4056 28.0446L30.7369 27.3909L30.9735 27.6832C31.2702 28.0495 31.2698 28.2189 30.9714 28.8034C30.7514 29.2342 30.0481 29.9499 28.697 31.1179C28.3024 31.459 28.1753 31.655 28.2063 31.8742C28.2457 32.1519 28.3084 32.1723 29.2263 32.2068L30.2044 32.2436L31.3201 31.1354C32.2337 30.2282 32.4869 29.8901 32.717 29.271C33.2167 27.9256 32.7889 26.6902 31.535 25.8577C30.9672 25.4807 30.5079 25.3332 28.486 24.8792C27.1767 24.5852 25.9636 24.2678 25.7903 24.1739C25.1172 23.8095 24.3116 23.0207 23.9571 22.3793C23.4487 21.4594 23.4413 20.2994 23.937 19.1597C24.3554 18.1971 24.3583 18.0591 23.9683 17.6692C23.5826 17.2835 23.1419 17.2738 22.7957 17.6434ZM27.9331 18.2318C26.8495 18.458 25.981 19.1727 25.5147 20.2221C25.3851 20.5138 25.2239 20.7866 25.1566 20.8283C25.0891 20.8699 25.034 21.2055 25.034 21.5743C25.034 22.3544 25.2394 22.629 25.6562 22.4059C25.8685 22.2923 25.9164 22.1446 25.9164 21.6031C25.9164 21.238 25.8624 20.8855 25.7965 20.8196C25.5985 20.6216 26.0868 19.7182 26.6546 19.2322C27.7623 18.2839 29.1915 18.264 30.3923 19.18C31.0943 19.7153 31.3198 20.2857 31.2443 21.3338C31.1935 22.0374 31.2207 22.2533 31.3764 22.3825C31.5241 22.5052 31.6361 22.5108 31.8324 22.4059C32.046 22.2915 32.0925 22.1447 32.0925 21.5842C32.0925 21.1571 32.0308 20.8638 31.9275 20.8008C31.8368 20.7453 31.6872 20.5133 31.595 20.2852C31.0067 18.8287 29.3971 17.9262 27.9331 18.2318ZM27.4919 19.177C26.698 19.5314 26.0424 20.5623 26.0424 21.4562C26.0424 23.2962 28.0633 24.4892 29.7094 23.6212C31.4578 22.699 31.4496 20.1442 29.6954 19.2493C29.1212 18.9564 28.0639 18.9217 27.4919 19.177ZM19.236 32.9893C19.236 33.2071 19.1519 33.2414 18.618 33.2414H18L18.0193 41.0877L18.0386 48.934L26.8932 48.9663L35.7478 48.9987V41.1201V33.2414H34.5504C33.4371 33.2414 33.353 33.2238 33.353 32.9893C33.353 32.7421 33.2689 32.7372 29.0675 32.7372C24.866 32.7372 24.782 32.7421 24.782 32.9893C24.782 33.219 24.6979 33.2414 23.8366 33.2414C22.9754 33.2414 22.8913 33.219 22.8913 32.9893C22.8913 32.7852 22.8072 32.7372 22.4501 32.7372C22.093 32.7372 22.009 32.7852 22.009 32.9893C22.009 33.1573 21.9249 33.2414 21.7569 33.2414C21.5889 33.2414 21.5048 33.1573 21.5048 32.9893C21.5048 32.7852 21.4207 32.7372 21.0636 32.7372C20.7066 32.7372 20.6225 32.7852 20.6225 32.9893C20.6225 33.1611 20.5384 33.2414 20.3585 33.2414C20.2007 33.2414 20.0683 33.1402 20.0288 32.9893C19.9821 32.8107 19.8569 32.7372 19.5994 32.7372C19.3201 32.7372 19.236 32.7955 19.236 32.9893ZM37.0083 40.9947V49L41.7034 48.967L46.3986 48.934L46.4239 41.3713C46.4378 37.2118 46.4212 33.6242 46.3868 33.399L46.3241 32.9893H41.6663H37.0083V40.9947ZM43.0193 34.698C43.6629 34.9586 44.5164 35.8338 44.8238 36.5482C45.0536 37.0822 45.0939 37.3598 45.0437 38.0602C44.8365 40.9576 41.3479 42.2322 39.2927 40.1615C37.7995 38.6568 38.1386 36.0097 39.9616 34.9415C40.8988 34.3922 42.04 34.3013 43.0193 34.698ZM41.1047 36.3867C40.63 36.5831 40.2582 37.1137 40.2009 37.6767C40.019 39.4637 42.4799 40.0436 43.1211 38.3647C43.2935 37.9131 43.299 37.7644 43.1591 37.3396C42.8838 36.5043 41.9112 36.0531 41.1047 36.3867ZM42.6548 42.965C44.0789 43.6544 44.4578 45.6088 43.4008 46.8126C41.8365 48.5943 39.025 47.5683 39.025 45.2156C39.025 43.3323 40.9491 42.1393 42.6548 42.965ZM40.7209 44.3907C40.0153 45.0961 40.5209 46.35 41.511 46.35C42.089 46.35 42.6803 45.7764 42.6803 45.2156C42.6803 44.261 41.3927 43.7187 40.7209 44.3907Z" fill="#0C3F54" stroke="black" stroke-width="2" mask="url(#path-2-inside-1_2202_11495)"/>
</svg>
