<svg width="65" height="66" viewBox="0 0 65 66" fill="none" xmlns="http://www.w3.org/2000/svg">
<circle cx="32.5" cy="33.4619" r="32" stroke="black"/>
<mask id="path-2-inside-1_2202_11516" fill="white">
<path fill-rule="evenodd" clip-rule="evenodd" d="M39.558 17.0966C38.9292 17.4222 38.844 18.267 39.3962 18.7014C39.7685 18.9942 40.3021 18.941 40.6515 18.5762C40.9044 18.3123 40.9552 17.7827 40.7578 17.4685C40.4875 17.0383 39.9765 16.8798 39.558 17.0966ZM38.9465 19.9182L38.9264 20.2682L38.4619 20.3453C36.2887 20.7061 34.6087 21.5781 33.1621 23.0962C32.1585 24.1494 31.5662 25.193 31.1836 26.5827C31.0571 27.0422 31.0374 27.3149 31.0136 28.9434L30.9867 30.7846H31.2493C31.3936 30.7846 31.6051 30.8032 31.7192 30.8261L31.9265 30.8675L31.927 29.3498C31.9273 28.5151 31.9583 27.638 31.996 27.4008C32.4749 24.3843 34.9904 21.9768 38.3503 21.3192C39.219 21.1491 40.8463 21.1656 41.7286 21.3533C43.4634 21.7224 44.883 22.4987 46.0664 23.7256C46.8805 24.5696 47.3968 25.4549 47.7643 26.6378L47.9499 27.2349L47.9681 35.9764L47.9864 44.718H39.9564H31.9265V38.8721C31.9265 33.3302 31.9205 33.0288 31.8104 33.0753C31.7465 33.1021 31.5377 33.1389 31.3463 33.1569L30.9983 33.1896L30.9814 38.9372L30.9644 44.6848L30.4502 44.7042L29.936 44.7236V45.3511V45.9786H39.9548H49.9736V45.3483V44.718H49.4759H48.9783L48.9782 36.6068C48.9782 28.2583 48.9579 27.4986 48.7099 26.5265C47.9287 23.4657 45.2615 21.103 41.7988 20.4046C41.5175 20.3478 41.228 20.3014 41.1553 20.3014C41.0429 20.3014 41.0204 20.2498 41.0032 19.9531L40.9832 19.6047L39.9749 19.5864L38.9666 19.5681L38.9465 19.9182ZM22.0267 21.5287L21.7942 22.6924L22.0334 22.6429C22.165 22.6157 22.6309 22.5946 23.0688 22.596C24.0616 22.5993 24.7285 22.7603 25.6402 23.2166C26.2652 23.5296 26.2884 23.5357 26.3213 23.3973C26.4563 22.828 26.7222 21.2865 26.6888 21.2658C26.6662 21.2519 25.708 21.057 24.5596 20.833C23.4113 20.6089 22.4239 20.4119 22.3655 20.3953C22.2768 20.3701 22.2208 20.5572 22.0267 21.5287ZM22.1274 22.8645C21.9216 22.9108 21.5228 23.375 21.3334 23.7886C20.3033 26.0388 22.6147 28.3322 24.8747 27.3024C25.8811 26.8438 26.5726 25.5504 26.3647 24.5152C26.2255 23.8224 26.1585 23.7337 25.5477 23.4353C24.6878 23.0152 24.1383 22.8832 23.1352 22.8556C22.6608 22.8426 22.2073 22.8466 22.1274 22.8645ZM21.9107 28.004C21.4313 28.098 20.9198 28.3887 20.5066 28.8019C20.1909 29.1176 20.0304 29.3694 19.6328 30.172C18.8101 31.8331 18.4123 33.256 18.2561 35.0972C18.1462 36.3914 18.2381 36.9203 18.6884 37.5841C19.0064 38.0531 19.1238 38.5602 19.1651 39.6423C19.2528 41.9446 18.4944 43.9394 16.6679 46.2109C16.0079 47.0316 15.8961 47.366 16.0783 47.9743C16.3343 48.8285 17.4079 49.2645 18.1831 48.8288C18.7755 48.4959 20.2116 46.5267 20.9186 45.0781C21.4918 43.9035 21.8746 42.6685 22.0774 41.3399L22.1221 41.047L22.4107 41.5721C23.1134 42.8508 23.765 44.933 23.9975 46.6421C24.1852 48.022 24.2125 48.1239 24.478 48.4341C24.7823 48.7895 25.1522 48.961 25.6189 48.9629C26.0868 48.9648 26.5047 48.7634 26.7577 48.4141C27.0964 47.9465 27.1247 47.7381 26.9925 46.6824C26.6184 43.6954 25.6828 41.053 24.2387 38.9049C23.715 38.1259 22.9091 37.1602 22.5546 36.887C22.4029 36.7701 22.3722 36.6955 22.3722 36.4444C22.3722 35.8958 22.7023 34.4994 23.1417 33.1894C23.3798 32.4795 23.5653 31.8924 23.554 31.8848C23.5426 31.8772 23.3392 31.7869 23.102 31.6843C22.292 31.3336 21.6421 30.9071 21.4696 30.6129C21.0124 29.8332 21.5598 28.8646 22.4594 28.8615C22.7177 28.8607 22.8967 28.924 23.3943 29.1922C23.7327 29.3747 24.0436 29.524 24.085 29.524C24.192 29.524 24.1119 29.1608 23.9203 28.7769C23.589 28.1133 22.8342 27.823 21.9107 28.004ZM22.0384 29.2088C21.8023 29.3281 21.7172 29.4209 21.615 29.6707C21.5031 29.9444 21.4975 30.0179 21.5699 30.2598C21.6792 30.6244 21.9306 30.8425 22.6625 31.2073C24.8674 32.3065 27.1515 32.8262 30.0355 32.8852C31.5216 32.9156 31.6435 32.9092 31.8601 32.7892C32.484 32.4437 32.5185 31.5524 31.9219 31.1896C31.7558 31.0886 31.5078 31.0637 30.3165 31.0287C27.4898 30.9456 25.5183 30.5018 23.4655 29.4867C22.9904 29.2518 22.5414 29.0595 22.4678 29.0595C22.3941 29.0595 22.201 29.1267 22.0384 29.2088ZM38.6223 29.5814C38.4973 29.6827 38.4642 29.7857 38.4413 30.1454L38.4133 30.5856H37.6882H36.963L36.9826 31.0334L37.0022 31.4813L37.7155 31.5001L38.4287 31.519V31.8727C38.4287 32.13 38.4662 32.274 38.5663 32.4012L38.7038 32.576H41.9544C43.948 32.576 45.2521 32.5509 45.3265 32.5111C45.5366 32.3987 45.5945 32.0657 45.5945 30.9704C45.5945 29.8751 45.5366 29.5923 45.2929 29.4988C45.2339 29.4762 43.7432 29.4576 41.9804 29.4576C38.9505 29.4576 38.7668 29.4644 38.6223 29.5814ZM33.2378 33.4761C32.8722 33.6744 32.8554 33.7825 32.8554 35.9267C32.8554 37.5523 32.8727 37.9241 32.956 38.0852C33.1714 38.5017 32.8074 38.4811 39.9681 38.4809C46.3697 38.4807 46.4943 38.4782 46.7075 38.3482C46.827 38.2753 46.9539 38.1391 46.9895 38.0455C47.0746 37.8216 47.0746 34.0317 46.9895 33.8079C46.9539 33.7143 46.827 33.578 46.7075 33.5052C46.4941 33.3752 46.372 33.3728 39.9548 33.3752C34.3031 33.3772 33.3948 33.3909 33.2378 33.4761ZM46.457 34.7324C46.457 34.8145 46.3354 34.8319 45.7604 34.8319H45.0637V35.2632V35.6945H44.7683H44.4729L44.4531 35.2798L44.4334 34.8651L39.9714 34.848L35.5094 34.831V35.2627V35.6945H35.1776H34.8459V35.2594V34.8244L34.1658 34.8371C33.5829 34.848 33.4827 34.8343 33.4643 34.7414C33.4445 34.6416 33.9626 34.6329 39.9499 34.6329C45.6898 34.6329 46.457 34.6446 46.457 34.7324ZM38.3624 36.0877C38.3624 36.5053 38.3784 36.56 38.5372 36.6849C38.6997 36.8127 38.7983 36.8224 39.9275 36.8224C41.5273 36.8224 41.5256 36.8232 41.5632 36.0262L41.5803 35.6613L41.8382 35.6402L42.096 35.619L42.0642 36.1138C42.0269 36.6946 41.8852 36.9831 41.5482 37.1632C41.3444 37.2722 41.157 37.2869 39.9649 37.2869C38.7153 37.2869 38.5939 37.2763 38.3654 37.1479C37.9982 36.9415 37.898 36.7236 37.898 36.1321V35.6281H38.1302H38.3624V36.0877ZM33.1053 39.2719L32.8886 39.4655V41.5996V43.7336L33.1053 43.9272L33.322 44.1208H39.9625H46.603L46.8286 43.8953L47.0542 43.6697V41.633C47.0542 39.4207 47.0382 39.3157 46.6752 39.1503C46.5649 39.1 44.522 39.0783 39.9196 39.0783H33.322L33.1053 39.2719ZM46.4444 40.4219C46.4645 40.5266 46.3977 40.538 45.7652 40.538H45.0637V40.9692V41.4005H44.7651H44.4665V40.9692V40.538H39.9911H35.5157L35.496 40.9527L35.4762 41.3673L35.161 41.3876L34.8459 41.4078V40.9729V40.538H34.1863C33.5587 40.538 33.392 40.4905 33.4859 40.3386C33.5132 40.2945 35.7085 40.2776 39.9746 40.2888C46.0546 40.3048 46.4233 40.3124 46.4444 40.4219ZM42.0585 41.8455C42.0171 42.3918 41.9151 42.6006 41.5934 42.7968C41.4007 42.9142 41.2519 42.9261 39.9681 42.9263C38.4002 42.9266 38.2651 42.8975 38.028 42.5086C37.9311 42.3497 37.8984 42.1752 37.8982 41.8152L37.898 41.3342H38.1302H38.3624V41.7506C38.3624 42.4763 38.331 42.4621 39.9367 42.4621C41.5796 42.4621 41.5472 42.4756 41.5472 41.7925V41.3426L41.7628 41.3202C41.8814 41.3079 42.0049 41.3102 42.0371 41.3254C42.0693 41.3405 42.079 41.5746 42.0585 41.8455ZM31.8601 46.9859C31.021 47.5513 31.4021 48.8317 32.4095 48.8317C32.8362 48.8317 33.1355 48.6485 33.3151 48.2774C33.487 47.9223 33.4878 47.7504 33.3188 47.4095C33.1337 47.0358 32.9016 46.886 32.4603 46.8552C32.1569 46.8339 32.0516 46.8569 31.8601 46.9859ZM47.0874 46.9184C46.39 47.3032 46.2833 48.0749 46.8559 48.5923C47.0895 48.8033 47.1622 48.8317 47.4691 48.8314C47.6993 48.8313 47.8904 48.7865 48.0334 48.6993C48.6743 48.3086 48.6743 47.3643 48.0334 46.9735C47.794 46.8275 47.3039 46.799 47.0874 46.9184Z"/>
</mask>
<path fill-rule="evenodd" clip-rule="evenodd" d="M39.558 17.0966C38.9292 17.4222 38.844 18.267 39.3962 18.7014C39.7685 18.9942 40.3021 18.941 40.6515 18.5762C40.9044 18.3123 40.9552 17.7827 40.7578 17.4685C40.4875 17.0383 39.9765 16.8798 39.558 17.0966ZM38.9465 19.9182L38.9264 20.2682L38.4619 20.3453C36.2887 20.7061 34.6087 21.5781 33.1621 23.0962C32.1585 24.1494 31.5662 25.193 31.1836 26.5827C31.0571 27.0422 31.0374 27.3149 31.0136 28.9434L30.9867 30.7846H31.2493C31.3936 30.7846 31.6051 30.8032 31.7192 30.8261L31.9265 30.8675L31.927 29.3498C31.9273 28.5151 31.9583 27.638 31.996 27.4008C32.4749 24.3843 34.9904 21.9768 38.3503 21.3192C39.219 21.1491 40.8463 21.1656 41.7286 21.3533C43.4634 21.7224 44.883 22.4987 46.0664 23.7256C46.8805 24.5696 47.3968 25.4549 47.7643 26.6378L47.9499 27.2349L47.9681 35.9764L47.9864 44.718H39.9564H31.9265V38.8721C31.9265 33.3302 31.9205 33.0288 31.8104 33.0753C31.7465 33.1021 31.5377 33.1389 31.3463 33.1569L30.9983 33.1896L30.9814 38.9372L30.9644 44.6848L30.4502 44.7042L29.936 44.7236V45.3511V45.9786H39.9548H49.9736V45.3483V44.718H49.4759H48.9783L48.9782 36.6068C48.9782 28.2583 48.9579 27.4986 48.7099 26.5265C47.9287 23.4657 45.2615 21.103 41.7988 20.4046C41.5175 20.3478 41.228 20.3014 41.1553 20.3014C41.0429 20.3014 41.0204 20.2498 41.0032 19.9531L40.9832 19.6047L39.9749 19.5864L38.9666 19.5681L38.9465 19.9182ZM22.0267 21.5287L21.7942 22.6924L22.0334 22.6429C22.165 22.6157 22.6309 22.5946 23.0688 22.596C24.0616 22.5993 24.7285 22.7603 25.6402 23.2166C26.2652 23.5296 26.2884 23.5357 26.3213 23.3973C26.4563 22.828 26.7222 21.2865 26.6888 21.2658C26.6662 21.2519 25.708 21.057 24.5596 20.833C23.4113 20.6089 22.4239 20.4119 22.3655 20.3953C22.2768 20.3701 22.2208 20.5572 22.0267 21.5287ZM22.1274 22.8645C21.9216 22.9108 21.5228 23.375 21.3334 23.7886C20.3033 26.0388 22.6147 28.3322 24.8747 27.3024C25.8811 26.8438 26.5726 25.5504 26.3647 24.5152C26.2255 23.8224 26.1585 23.7337 25.5477 23.4353C24.6878 23.0152 24.1383 22.8832 23.1352 22.8556C22.6608 22.8426 22.2073 22.8466 22.1274 22.8645ZM21.9107 28.004C21.4313 28.098 20.9198 28.3887 20.5066 28.8019C20.1909 29.1176 20.0304 29.3694 19.6328 30.172C18.8101 31.8331 18.4123 33.256 18.2561 35.0972C18.1462 36.3914 18.2381 36.9203 18.6884 37.5841C19.0064 38.0531 19.1238 38.5602 19.1651 39.6423C19.2528 41.9446 18.4944 43.9394 16.6679 46.2109C16.0079 47.0316 15.8961 47.366 16.0783 47.9743C16.3343 48.8285 17.4079 49.2645 18.1831 48.8288C18.7755 48.4959 20.2116 46.5267 20.9186 45.0781C21.4918 43.9035 21.8746 42.6685 22.0774 41.3399L22.1221 41.047L22.4107 41.5721C23.1134 42.8508 23.765 44.933 23.9975 46.6421C24.1852 48.022 24.2125 48.1239 24.478 48.4341C24.7823 48.7895 25.1522 48.961 25.6189 48.9629C26.0868 48.9648 26.5047 48.7634 26.7577 48.4141C27.0964 47.9465 27.1247 47.7381 26.9925 46.6824C26.6184 43.6954 25.6828 41.053 24.2387 38.9049C23.715 38.1259 22.9091 37.1602 22.5546 36.887C22.4029 36.7701 22.3722 36.6955 22.3722 36.4444C22.3722 35.8958 22.7023 34.4994 23.1417 33.1894C23.3798 32.4795 23.5653 31.8924 23.554 31.8848C23.5426 31.8772 23.3392 31.7869 23.102 31.6843C22.292 31.3336 21.6421 30.9071 21.4696 30.6129C21.0124 29.8332 21.5598 28.8646 22.4594 28.8615C22.7177 28.8607 22.8967 28.924 23.3943 29.1922C23.7327 29.3747 24.0436 29.524 24.085 29.524C24.192 29.524 24.1119 29.1608 23.9203 28.7769C23.589 28.1133 22.8342 27.823 21.9107 28.004ZM22.0384 29.2088C21.8023 29.3281 21.7172 29.4209 21.615 29.6707C21.5031 29.9444 21.4975 30.0179 21.5699 30.2598C21.6792 30.6244 21.9306 30.8425 22.6625 31.2073C24.8674 32.3065 27.1515 32.8262 30.0355 32.8852C31.5216 32.9156 31.6435 32.9092 31.8601 32.7892C32.484 32.4437 32.5185 31.5524 31.9219 31.1896C31.7558 31.0886 31.5078 31.0637 30.3165 31.0287C27.4898 30.9456 25.5183 30.5018 23.4655 29.4867C22.9904 29.2518 22.5414 29.0595 22.4678 29.0595C22.3941 29.0595 22.201 29.1267 22.0384 29.2088ZM38.6223 29.5814C38.4973 29.6827 38.4642 29.7857 38.4413 30.1454L38.4133 30.5856H37.6882H36.963L36.9826 31.0334L37.0022 31.4813L37.7155 31.5001L38.4287 31.519V31.8727C38.4287 32.13 38.4662 32.274 38.5663 32.4012L38.7038 32.576H41.9544C43.948 32.576 45.2521 32.5509 45.3265 32.5111C45.5366 32.3987 45.5945 32.0657 45.5945 30.9704C45.5945 29.8751 45.5366 29.5923 45.2929 29.4988C45.2339 29.4762 43.7432 29.4576 41.9804 29.4576C38.9505 29.4576 38.7668 29.4644 38.6223 29.5814ZM33.2378 33.4761C32.8722 33.6744 32.8554 33.7825 32.8554 35.9267C32.8554 37.5523 32.8727 37.9241 32.956 38.0852C33.1714 38.5017 32.8074 38.4811 39.9681 38.4809C46.3697 38.4807 46.4943 38.4782 46.7075 38.3482C46.827 38.2753 46.9539 38.1391 46.9895 38.0455C47.0746 37.8216 47.0746 34.0317 46.9895 33.8079C46.9539 33.7143 46.827 33.578 46.7075 33.5052C46.4941 33.3752 46.372 33.3728 39.9548 33.3752C34.3031 33.3772 33.3948 33.3909 33.2378 33.4761ZM46.457 34.7324C46.457 34.8145 46.3354 34.8319 45.7604 34.8319H45.0637V35.2632V35.6945H44.7683H44.4729L44.4531 35.2798L44.4334 34.8651L39.9714 34.848L35.5094 34.831V35.2627V35.6945H35.1776H34.8459V35.2594V34.8244L34.1658 34.8371C33.5829 34.848 33.4827 34.8343 33.4643 34.7414C33.4445 34.6416 33.9626 34.6329 39.9499 34.6329C45.6898 34.6329 46.457 34.6446 46.457 34.7324ZM38.3624 36.0877C38.3624 36.5053 38.3784 36.56 38.5372 36.6849C38.6997 36.8127 38.7983 36.8224 39.9275 36.8224C41.5273 36.8224 41.5256 36.8232 41.5632 36.0262L41.5803 35.6613L41.8382 35.6402L42.096 35.619L42.0642 36.1138C42.0269 36.6946 41.8852 36.9831 41.5482 37.1632C41.3444 37.2722 41.157 37.2869 39.9649 37.2869C38.7153 37.2869 38.5939 37.2763 38.3654 37.1479C37.9982 36.9415 37.898 36.7236 37.898 36.1321V35.6281H38.1302H38.3624V36.0877ZM33.1053 39.2719L32.8886 39.4655V41.5996V43.7336L33.1053 43.9272L33.322 44.1208H39.9625H46.603L46.8286 43.8953L47.0542 43.6697V41.633C47.0542 39.4207 47.0382 39.3157 46.6752 39.1503C46.5649 39.1 44.522 39.0783 39.9196 39.0783H33.322L33.1053 39.2719ZM46.4444 40.4219C46.4645 40.5266 46.3977 40.538 45.7652 40.538H45.0637V40.9692V41.4005H44.7651H44.4665V40.9692V40.538H39.9911H35.5157L35.496 40.9527L35.4762 41.3673L35.161 41.3876L34.8459 41.4078V40.9729V40.538H34.1863C33.5587 40.538 33.392 40.4905 33.4859 40.3386C33.5132 40.2945 35.7085 40.2776 39.9746 40.2888C46.0546 40.3048 46.4233 40.3124 46.4444 40.4219ZM42.0585 41.8455C42.0171 42.3918 41.9151 42.6006 41.5934 42.7968C41.4007 42.9142 41.2519 42.9261 39.9681 42.9263C38.4002 42.9266 38.2651 42.8975 38.028 42.5086C37.9311 42.3497 37.8984 42.1752 37.8982 41.8152L37.898 41.3342H38.1302H38.3624V41.7506C38.3624 42.4763 38.331 42.4621 39.9367 42.4621C41.5796 42.4621 41.5472 42.4756 41.5472 41.7925V41.3426L41.7628 41.3202C41.8814 41.3079 42.0049 41.3102 42.0371 41.3254C42.0693 41.3405 42.079 41.5746 42.0585 41.8455ZM31.8601 46.9859C31.021 47.5513 31.4021 48.8317 32.4095 48.8317C32.8362 48.8317 33.1355 48.6485 33.3151 48.2774C33.487 47.9223 33.4878 47.7504 33.3188 47.4095C33.1337 47.0358 32.9016 46.886 32.4603 46.8552C32.1569 46.8339 32.0516 46.8569 31.8601 46.9859ZM47.0874 46.9184C46.39 47.3032 46.2833 48.0749 46.8559 48.5923C47.0895 48.8033 47.1622 48.8317 47.4691 48.8314C47.6993 48.8313 47.8904 48.7865 48.0334 48.6993C48.6743 48.3086 48.6743 47.3643 48.0334 46.9735C47.794 46.8275 47.3039 46.799 47.0874 46.9184Z" fill="#0C3F54" stroke="black" stroke-width="2" mask="url(#path-2-inside-1_2202_11516)"/>
</svg>
