<svg width="61" height="61" viewBox="0 0 61 61" fill="none" xmlns="http://www.w3.org/2000/svg">
<g filter="url(#filter0_dd_2202_12280)">
<circle cx="30.5" cy="26.5" r="22" stroke="#0C3F54"/>
<path fill-rule="evenodd" clip-rule="evenodd" d="M20.9936 18.0144C20.9912 18.0217 20.7301 19.1848 20.4136 20.599L19.838 23.1703L23.0246 23.1842C24.7773 23.1918 26.2173 23.1918 26.2247 23.1842C26.2409 23.1675 26.5703 18.3588 26.5697 18.1483L26.5693 18.001H23.7837C22.2516 18.001 20.9961 18.007 20.9936 18.0144ZM28.0488 20.2642C27.967 21.5091 27.8865 22.6782 27.8698 22.8623L27.8394 23.1971H30.694H33.5487L33.5183 22.8623C33.5016 22.6782 33.4211 21.5091 33.3393 20.2642L33.1907 18.001H30.694H28.1974L28.0488 20.2642ZM34.8184 18.1478C34.8178 18.3586 35.1471 23.1675 35.1634 23.1842C35.1708 23.1918 36.6108 23.1918 38.3635 23.1842L41.5501 23.1703L40.9792 20.599L40.4084 18.0277L37.6136 18.0139L34.8188 18L34.8184 18.1478ZM18.9849 27.0007L18.4984 29.1968H22.1578H25.8173L25.8418 29.0763C25.8552 29.0099 25.9165 28.1361 25.9779 27.1344C26.0394 26.1327 26.1034 25.1986 26.1202 25.0586L26.1508 24.8042L22.8111 24.8044L19.4714 24.8045L18.9849 27.0007ZM27.7451 24.8443C27.7437 24.8664 27.6768 25.8548 27.5965 27.0407L27.4504 29.1968H30.694H33.9377L33.7916 27.0407C33.7112 25.8548 33.6444 24.8664 33.6429 24.8443C33.6415 24.8223 32.3145 24.8042 30.694 24.8042C29.0736 24.8042 27.7466 24.8223 27.7451 24.8443ZM35.2679 25.0586C35.2847 25.1986 35.3487 26.1327 35.4102 27.1344C35.4716 28.1361 35.5329 29.0099 35.5463 29.0763L35.5708 29.1968H39.2302H42.8897L42.4032 27.0007L41.9167 24.8045L38.577 24.8044L35.2373 24.8042L35.2679 25.0586ZM18.1318 30.8708C18.1187 30.9077 17.8656 32.0346 17.5692 33.3751C17.2728 34.7157 17.0175 35.8547 17.0018 35.9063C16.9748 35.995 17.1985 36 21.182 36C24.5131 36 25.3908 35.986 25.3911 35.933C25.3913 35.8962 25.4635 34.8054 25.5515 33.5091C25.6394 32.2127 25.7116 31.0737 25.7118 30.9779L25.7122 30.8038H21.9339C18.9597 30.8038 18.1506 30.8181 18.1318 30.8708ZM27.1917 33.0671C27.1099 34.3119 27.0294 35.4811 27.0127 35.6652L26.9823 36H30.694H34.4058L34.3754 35.6652C34.3587 35.4811 34.2782 34.3119 34.1964 33.0671L34.0478 30.8038H30.694H27.3403L27.1917 33.0671ZM35.6763 30.9776C35.6765 31.0735 35.7487 32.2127 35.8366 33.5091C35.9246 34.8054 35.9967 35.8962 35.997 35.933C35.9973 35.986 36.8745 36 40.2035 36H44.4096L44.3746 35.8604C44.3553 35.7836 44.0951 34.6206 43.7963 33.2757L43.253 30.8306L39.4645 30.8169L35.6759 30.8032L35.6763 30.9776Z" fill="#0C3F54"/>
</g>
<defs>
<filter id="filter0_dd_2202_12280" x="0" y="0" width="61" height="61" filterUnits="userSpaceOnUse" color-interpolation-filters="sRGB">
<feFlood flood-opacity="0" result="BackgroundImageFix"/>
<feColorMatrix in="SourceAlpha" type="matrix" values="0 0 0 0 0 0 0 0 0 0 0 0 0 0 0 0 0 0 127 0" result="hardAlpha"/>
<feOffset dy="4"/>
<feGaussianBlur stdDeviation="4"/>
<feColorMatrix type="matrix" values="0 0 0 0 0 0 0 0 0 0 0 0 0 0 0 0 0 0 0.04 0"/>
<feBlend mode="normal" in2="BackgroundImageFix" result="effect1_dropShadow_2202_12280"/>
<feColorMatrix in="SourceAlpha" type="matrix" values="0 0 0 0 0 0 0 0 0 0 0 0 0 0 0 0 0 0 127 0" result="hardAlpha"/>
<feOffset/>
<feGaussianBlur stdDeviation="2"/>
<feComposite in2="hardAlpha" operator="out"/>
<feColorMatrix type="matrix" values="0 0 0 0 0 0 0 0 0 0 0 0 0 0 0 0 0 0 0.04 0"/>
<feBlend mode="normal" in2="effect1_dropShadow_2202_12280" result="effect2_dropShadow_2202_12280"/>
<feBlend mode="normal" in="SourceGraphic" in2="effect2_dropShadow_2202_12280" result="shape"/>
</filter>
</defs>
</svg>
