<svg width="65" height="66" viewBox="0 0 65 66" fill="none" xmlns="http://www.w3.org/2000/svg">
<circle cx="32.5" cy="33.4619" r="32" stroke="black"/>
<path d="M31.6294 27.3706L31.6298 27.3711C31.7126 27.4541 31.811 27.5199 31.9193 27.5649C32.0275 27.6098 32.1436 27.6329 32.2609 27.6329C32.3781 27.6329 32.4942 27.6098 32.6025 27.5649C32.7108 27.5199 32.8091 27.4541 32.8919 27.3711L32.8924 27.3706L37.0663 23.1967L37.4198 23.5503L37.0663 23.1967C37.1492 23.1138 37.215 23.0153 37.2599 22.907C37.3047 22.7986 37.3278 22.6825 37.3278 22.5652C37.3278 22.4479 37.3047 22.3318 37.2599 22.2235C37.215 22.1151 37.1492 22.0167 37.0663 21.9337C36.9833 21.8508 36.8849 21.785 36.7765 21.7401C36.6682 21.6953 36.5521 21.6722 36.4348 21.6722C36.3175 21.6722 36.2014 21.6953 36.093 21.7401C35.9848 21.785 35.8864 21.8507 35.8036 21.9335L31.6294 27.3706ZM31.6294 27.3706L27.4555 23.1967L27.1019 23.5503M31.6294 27.3706L27.1019 23.5503M31.6306 17.7611C31.7978 17.5939 32.0245 17.5 32.2609 17.5C32.4973 17.5 32.724 17.5939 32.8911 17.7611L33.2447 17.4075L32.8911 17.7611C33.0583 17.9282 33.1522 18.1549 33.1522 18.3913V23.3805V24.589L34.006 23.7338L35.8033 21.9337L31.6306 17.7611ZM31.6306 17.7611L31.2771 17.4075L28.7184 21.9337L30.5157 23.7338L31.3696 24.589V23.3805V18.3913C31.3696 18.1549 31.4635 17.9282 31.6306 17.7611ZM27.1019 23.5503L27.4555 23.1967C27.3725 23.1138 27.3068 23.0153 27.2619 22.907C27.217 22.7986 27.1939 22.6825 27.1939 22.5652C27.1939 22.4479 27.217 22.3318 27.2619 22.2235C27.3068 22.1151 27.3725 22.0167 27.4555 21.9337C27.5384 21.8508 27.6368 21.785 27.7452 21.7401C27.8535 21.6953 27.9697 21.6722 28.087 21.6722C28.2042 21.6722 28.3204 21.6953 28.4287 21.7401C28.5369 21.785 28.6353 21.8507 28.7182 21.9335L27.1019 23.5503ZM42.5816 46.7174H41.8404L42.1179 46.0302C42.7695 44.4166 43.015 42.6677 42.8329 40.9371C42.6508 39.2065 42.0466 37.547 41.0734 36.1044C40.1002 34.6618 38.7877 33.4802 37.2511 32.6633C35.7146 31.8464 34.001 31.4192 32.2609 31.4192C30.5207 31.4192 28.8071 31.8464 27.2706 32.6633C25.7341 33.4802 24.4216 34.6618 23.4484 36.1044C22.4751 37.547 21.8709 39.2065 21.6888 40.9371C21.5067 42.6677 21.7522 44.4166 22.4038 46.0302L22.6813 46.7174H21.9402H11.3913C11.1549 46.7174 10.9282 46.8113 10.7611 46.9784L10.4075 46.6249L10.7611 46.9784C10.5939 47.1456 10.5 47.3723 10.5 47.6087C10.5 47.8451 10.5939 48.0718 10.7611 48.2389M42.5816 46.7174L10.7611 48.2389M42.5816 46.7174H42.5843H53.1304C53.3668 46.7174 53.5935 46.8113 53.7607 46.9784C53.9278 47.1456 54.0217 47.3723 54.0217 47.6087C54.0217 47.8451 53.9278 48.0718 53.7607 48.2389C53.5935 48.4061 53.3668 48.5 53.1304 48.5H11.3913C11.1549 48.5 10.9282 48.4061 10.7611 48.2389M42.5816 46.7174L10.4075 48.5925L10.7611 48.2389M16.6123 27.2859C16.6123 27.0693 16.6911 26.8608 16.833 26.6988L16.8732 26.6587C17.0403 26.4916 17.267 26.3977 17.5033 26.3977C17.7396 26.3977 17.9663 26.4916 18.1335 26.6587L18.1335 26.6587L22.0647 30.5871C22.2253 30.7549 22.3141 30.9788 22.3121 31.2112C22.3101 31.4449 22.2163 31.6684 22.0511 31.8337C21.8858 31.9989 21.6623 32.0927 21.4286 32.0947C21.1962 32.0967 20.9722 32.0079 20.8044 31.8472L16.8733 27.9161C16.8732 27.916 16.8732 27.916 16.8732 27.916C16.7061 27.7489 16.6123 27.5222 16.6123 27.2859ZM47.0184 26.3949C47.2355 26.3949 47.4443 26.4741 47.6065 26.6164L47.648 26.658C47.8145 26.8251 47.9081 27.0514 47.9081 27.2873C47.9081 27.5231 47.8146 27.7493 47.6482 27.9163C47.6482 27.9164 47.6481 27.9165 47.648 27.9166L43.7139 31.8506L43.7139 31.8506L43.7078 31.8568C43.6256 31.9419 43.5273 32.0098 43.4185 32.0566C43.3098 32.1033 43.1928 32.1279 43.0745 32.1289C42.9561 32.1299 42.8388 32.1074 42.7292 32.0626C42.6197 32.0177 42.5202 31.9516 42.4365 31.8679C42.3528 31.7842 42.2866 31.6847 42.2418 31.5751C42.197 31.4656 42.1744 31.3482 42.1755 31.2299C42.1765 31.1115 42.2011 30.9946 42.2478 30.8858C42.2945 30.7771 42.3624 30.6787 42.4475 30.5965L42.4476 30.5966L42.4537 30.5904L46.3883 26.6559C46.3883 26.6559 46.3883 26.6558 46.3883 26.6558C46.5555 26.4888 46.7821 26.3949 47.0184 26.3949ZM10.5 42.0435C10.5 41.8071 10.5939 41.5804 10.7611 41.4132C10.9282 41.2461 11.1549 41.1522 11.3913 41.1522H16.9565C17.1929 41.1522 17.4196 41.2461 17.5868 41.4132C17.7539 41.5804 17.8478 41.8071 17.8478 42.0435C17.8478 42.2799 17.7539 42.5066 17.5868 42.6737C17.4196 42.8409 17.1929 42.9348 16.9565 42.9348H11.3913C11.1549 42.9348 10.9282 42.8409 10.7611 42.6737C10.5939 42.5066 10.5 42.2799 10.5 42.0435ZM46.6739 42.0435C46.6739 41.8071 46.7678 41.5804 46.935 41.4132C47.1021 41.2461 47.3288 41.1522 47.5652 41.1522H53.1304C53.3668 41.1522 53.5935 41.2461 53.7607 41.4132C53.9278 41.5804 54.0217 41.8071 54.0217 42.0435C54.0217 42.2799 53.9278 42.5066 53.7607 42.6737C53.5935 42.8409 53.3668 42.9348 53.1304 42.9348H47.5652C47.3288 42.9348 47.1021 42.8409 46.935 42.6737C46.7678 42.5066 46.6739 42.2799 46.6739 42.0435Z" fill="#0C3F54" stroke="black"/>
</svg>
