<svg width="65" height="66" viewBox="0 0 65 66" fill="none" xmlns="http://www.w3.org/2000/svg">
<circle cx="32.5" cy="33.4619" r="32" stroke="black"/>
<mask id="path-2-inside-1_2202_11526" fill="white">
<path fill-rule="evenodd" clip-rule="evenodd" d="M24.023 17.2309C23.6547 17.3581 23.2043 17.5733 23.022 17.7092C22.7046 17.9459 22.6892 18.0119 22.6552 19.288C22.6357 20.0205 22.6426 20.6198 22.6706 20.6198C22.6986 20.6198 22.996 20.4978 23.3317 20.3487C23.7802 20.1494 24.2734 20.0627 25.193 20.0216C26.2801 19.973 26.563 20.0056 27.3512 20.2706L28.2583 20.5757V19.2849V17.9941L27.7515 17.6268C26.8584 16.9799 25.2457 16.8087 24.023 17.2309ZM23.8604 20.4104C22.85 20.696 22.6282 20.9108 22.6282 21.604C22.6282 23.1759 24.3513 24.5872 25.908 24.2904C27.0458 24.0735 28.0252 23.1491 28.2683 22.0628C28.4556 21.2261 28.3092 20.9342 27.5281 20.5872C26.794 20.2609 24.7399 20.1618 23.8604 20.4104ZM22.3788 25.1077C22.0988 25.1882 22.0733 25.2479 22.1286 25.6923C22.1625 25.9647 22.1674 26.9475 22.1394 27.8764C22.1113 28.8054 22.0832 33.7448 22.0768 38.8528L22.0652 48.1401L22.4742 48.5491C22.8363 48.9112 22.9616 48.9581 23.5665 48.9581C24.1715 48.9581 24.2968 48.9112 24.6589 48.5492L25.0679 48.1402L25.1305 42.5438L25.193 36.9472L25.4745 36.9071L25.756 36.8672V42.3246C25.756 48.3486 25.749 48.2908 26.5441 48.7754C27.3272 49.253 28.4312 48.9356 28.7616 48.1379C28.9801 47.6105 28.9731 30.7375 28.7536 28.7824C28.6428 27.7948 28.6379 27.1565 28.735 26.3751C28.8078 25.7901 28.8212 25.2647 28.7649 25.2072C28.7086 25.1498 28.3245 25.0721 27.9112 25.0347L27.1599 24.9665L27.0199 25.6395C26.8709 26.3554 26.4029 27.7449 26.2526 27.9171C26.2031 27.9739 26.1234 27.7065 26.0755 27.3228L25.9882 26.6253H25.4342C24.8951 26.6253 24.8799 26.6363 24.8677 27.0319C24.8608 27.2555 24.8158 27.5793 24.7675 27.7513C24.6914 28.0228 24.6348 27.9402 24.339 27.1257C24.1515 26.6096 23.956 25.934 23.9046 25.6244L23.811 25.0614L23.2509 25.0397C22.9428 25.0278 22.5504 25.0584 22.3788 25.1077ZM24.9649 25.0926C24.9345 25.1442 24.8689 25.3765 24.8191 25.6087C24.7143 26.0967 24.8607 26.2461 25.4433 26.2461C26.0469 26.2461 26.1707 26.1021 26.0714 25.5148C25.987 25.0146 25.9695 24.9988 25.5022 24.9988C25.2371 24.9988 24.9952 25.0411 24.9649 25.0926ZM20.9932 25.9936C19.7287 27.3229 19.0004 30.3029 19 34.1488C18.9999 35.5151 18.9899 35.5032 20.1469 35.5066C21.1594 35.5096 21.1268 35.5721 21.1268 33.6273C21.1268 31.7889 21.2706 30.426 21.5781 29.35C21.6818 28.9868 21.7984 28.3961 21.8372 28.0373C21.9293 27.1858 21.7698 25.4993 21.5972 25.4993C21.5237 25.4993 21.2518 25.7217 20.9932 25.9936ZM29.2151 25.7182C29.1814 25.8387 29.1173 26.3647 29.0727 26.8871C29.0052 27.674 29.0467 28.061 29.3131 29.1392C29.6646 30.5617 29.9511 33.5123 29.8486 34.6553C29.7748 35.479 29.8085 35.5084 30.8231 35.5084C31.9228 35.5084 31.8866 35.5664 31.8866 33.8011C31.8866 30.0629 31.2638 27.5165 29.9976 26.078C29.4424 25.4472 29.3079 25.3854 29.2151 25.7182ZM28.1098 28.9086C28.1461 29.0992 28.0449 29.1276 27.3291 29.1276C26.5838 29.1276 26.5067 29.1035 26.5067 28.8713C26.5067 28.6366 26.5719 28.6182 27.2874 28.6524C27.9137 28.6823 28.0764 28.733 28.1098 28.9086ZM33.2629 30.5589C33.2629 31.1104 33.2661 31.1145 33.732 31.1532L34.2012 31.1919L34.2334 39.9812L34.2655 48.7704H39.5811H44.8967L44.9289 39.9812L44.961 31.1919L45.4302 31.1532C45.8961 31.1145 45.8994 31.1104 45.8994 30.5589V30.0034H39.5811H33.2629V30.5589ZM43.1551 33.3858C43.3858 33.5093 43.3971 33.6845 43.3971 37.1348C43.3971 40.5852 43.3858 40.7604 43.1551 40.8839C43.0056 40.9638 41.6346 41.0134 39.5679 41.0134C36.6308 41.0134 36.1948 40.9881 35.994 40.8063C35.7828 40.6151 35.7651 40.3319 35.7651 37.1243C35.7651 34.1322 35.7924 33.6223 35.9617 33.4529C36.1307 33.2838 36.6322 33.2563 39.5357 33.2563C41.6246 33.2563 43.0054 33.3057 43.1551 33.3858ZM38.4211 34.8391L38.1367 34.9009L38.1708 37.1751L38.2049 39.4495H38.7053H39.2058L39.2428 38.6049L39.2797 37.7604H39.7869C40.8124 37.7604 41.5204 37.1449 41.5204 36.2533C41.5204 35.7493 41.1936 35.1967 40.7803 35.0019C40.4383 34.8408 38.9011 34.7347 38.4211 34.8391ZM40.3247 35.9116C40.4318 36.0645 40.5195 36.2616 40.5195 36.3495C40.5195 36.6385 40.0272 37.0097 39.6437 37.0097C39.2721 37.0097 39.2683 37.0027 39.2683 36.3216V35.6335H39.6991C40.0025 35.6335 40.1875 35.7158 40.3247 35.9116ZM19.125 36.2667C19.125 37.0827 19.8938 37.5763 20.5977 37.2122C21.0183 36.9947 21.1268 36.7908 21.1268 36.2175V35.8212H20.1259H19.125V36.2667ZM29.7596 36.2374C29.7597 36.6842 30.3219 37.3851 30.6803 37.3851C31.1334 37.3851 31.5327 37.1143 31.7118 36.6854C32.0254 35.935 31.9537 35.8694 30.7917 35.8439L29.7594 35.8212L29.7596 36.2374Z"/>
</mask>
<path fill-rule="evenodd" clip-rule="evenodd" d="M24.023 17.2309C23.6547 17.3581 23.2043 17.5733 23.022 17.7092C22.7046 17.9459 22.6892 18.0119 22.6552 19.288C22.6357 20.0205 22.6426 20.6198 22.6706 20.6198C22.6986 20.6198 22.996 20.4978 23.3317 20.3487C23.7802 20.1494 24.2734 20.0627 25.193 20.0216C26.2801 19.973 26.563 20.0056 27.3512 20.2706L28.2583 20.5757V19.2849V17.9941L27.7515 17.6268C26.8584 16.9799 25.2457 16.8087 24.023 17.2309ZM23.8604 20.4104C22.85 20.696 22.6282 20.9108 22.6282 21.604C22.6282 23.1759 24.3513 24.5872 25.908 24.2904C27.0458 24.0735 28.0252 23.1491 28.2683 22.0628C28.4556 21.2261 28.3092 20.9342 27.5281 20.5872C26.794 20.2609 24.7399 20.1618 23.8604 20.4104ZM22.3788 25.1077C22.0988 25.1882 22.0733 25.2479 22.1286 25.6923C22.1625 25.9647 22.1674 26.9475 22.1394 27.8764C22.1113 28.8054 22.0832 33.7448 22.0768 38.8528L22.0652 48.1401L22.4742 48.5491C22.8363 48.9112 22.9616 48.9581 23.5665 48.9581C24.1715 48.9581 24.2968 48.9112 24.6589 48.5492L25.0679 48.1402L25.1305 42.5438L25.193 36.9472L25.4745 36.9071L25.756 36.8672V42.3246C25.756 48.3486 25.749 48.2908 26.5441 48.7754C27.3272 49.253 28.4312 48.9356 28.7616 48.1379C28.9801 47.6105 28.9731 30.7375 28.7536 28.7824C28.6428 27.7948 28.6379 27.1565 28.735 26.3751C28.8078 25.7901 28.8212 25.2647 28.7649 25.2072C28.7086 25.1498 28.3245 25.0721 27.9112 25.0347L27.1599 24.9665L27.0199 25.6395C26.8709 26.3554 26.4029 27.7449 26.2526 27.9171C26.2031 27.9739 26.1234 27.7065 26.0755 27.3228L25.9882 26.6253H25.4342C24.8951 26.6253 24.8799 26.6363 24.8677 27.0319C24.8608 27.2555 24.8158 27.5793 24.7675 27.7513C24.6914 28.0228 24.6348 27.9402 24.339 27.1257C24.1515 26.6096 23.956 25.934 23.9046 25.6244L23.811 25.0614L23.2509 25.0397C22.9428 25.0278 22.5504 25.0584 22.3788 25.1077ZM24.9649 25.0926C24.9345 25.1442 24.8689 25.3765 24.8191 25.6087C24.7143 26.0967 24.8607 26.2461 25.4433 26.2461C26.0469 26.2461 26.1707 26.1021 26.0714 25.5148C25.987 25.0146 25.9695 24.9988 25.5022 24.9988C25.2371 24.9988 24.9952 25.0411 24.9649 25.0926ZM20.9932 25.9936C19.7287 27.3229 19.0004 30.3029 19 34.1488C18.9999 35.5151 18.9899 35.5032 20.1469 35.5066C21.1594 35.5096 21.1268 35.5721 21.1268 33.6273C21.1268 31.7889 21.2706 30.426 21.5781 29.35C21.6818 28.9868 21.7984 28.3961 21.8372 28.0373C21.9293 27.1858 21.7698 25.4993 21.5972 25.4993C21.5237 25.4993 21.2518 25.7217 20.9932 25.9936ZM29.2151 25.7182C29.1814 25.8387 29.1173 26.3647 29.0727 26.8871C29.0052 27.674 29.0467 28.061 29.3131 29.1392C29.6646 30.5617 29.9511 33.5123 29.8486 34.6553C29.7748 35.479 29.8085 35.5084 30.8231 35.5084C31.9228 35.5084 31.8866 35.5664 31.8866 33.8011C31.8866 30.0629 31.2638 27.5165 29.9976 26.078C29.4424 25.4472 29.3079 25.3854 29.2151 25.7182ZM28.1098 28.9086C28.1461 29.0992 28.0449 29.1276 27.3291 29.1276C26.5838 29.1276 26.5067 29.1035 26.5067 28.8713C26.5067 28.6366 26.5719 28.6182 27.2874 28.6524C27.9137 28.6823 28.0764 28.733 28.1098 28.9086ZM33.2629 30.5589C33.2629 31.1104 33.2661 31.1145 33.732 31.1532L34.2012 31.1919L34.2334 39.9812L34.2655 48.7704H39.5811H44.8967L44.9289 39.9812L44.961 31.1919L45.4302 31.1532C45.8961 31.1145 45.8994 31.1104 45.8994 30.5589V30.0034H39.5811H33.2629V30.5589ZM43.1551 33.3858C43.3858 33.5093 43.3971 33.6845 43.3971 37.1348C43.3971 40.5852 43.3858 40.7604 43.1551 40.8839C43.0056 40.9638 41.6346 41.0134 39.5679 41.0134C36.6308 41.0134 36.1948 40.9881 35.994 40.8063C35.7828 40.6151 35.7651 40.3319 35.7651 37.1243C35.7651 34.1322 35.7924 33.6223 35.9617 33.4529C36.1307 33.2838 36.6322 33.2563 39.5357 33.2563C41.6246 33.2563 43.0054 33.3057 43.1551 33.3858ZM38.4211 34.8391L38.1367 34.9009L38.1708 37.1751L38.2049 39.4495H38.7053H39.2058L39.2428 38.6049L39.2797 37.7604H39.7869C40.8124 37.7604 41.5204 37.1449 41.5204 36.2533C41.5204 35.7493 41.1936 35.1967 40.7803 35.0019C40.4383 34.8408 38.9011 34.7347 38.4211 34.8391ZM40.3247 35.9116C40.4318 36.0645 40.5195 36.2616 40.5195 36.3495C40.5195 36.6385 40.0272 37.0097 39.6437 37.0097C39.2721 37.0097 39.2683 37.0027 39.2683 36.3216V35.6335H39.6991C40.0025 35.6335 40.1875 35.7158 40.3247 35.9116ZM19.125 36.2667C19.125 37.0827 19.8938 37.5763 20.5977 37.2122C21.0183 36.9947 21.1268 36.7908 21.1268 36.2175V35.8212H20.1259H19.125V36.2667ZM29.7596 36.2374C29.7597 36.6842 30.3219 37.3851 30.6803 37.3851C31.1334 37.3851 31.5327 37.1143 31.7118 36.6854C32.0254 35.935 31.9537 35.8694 30.7917 35.8439L29.7594 35.8212L29.7596 36.2374Z" fill="#0C3F54" stroke="black" stroke-width="2" mask="url(#path-2-inside-1_2202_11526)"/>
</svg>
