<svg width="65" height="66" viewBox="0 0 65 66" fill="none" xmlns="http://www.w3.org/2000/svg">
<circle cx="32.5" cy="33.4619" r="32" stroke="black"/>
<path d="M27.2337 38.3947C23.5955 38.3947 19.9943 39.9214 16.5 41.4899V39.2183C19.2214 37.9966 21.8676 36.8269 24.518 36.3031L24.9211 36.2235V35.8126V22.0526C24.9211 20.8452 25.4007 19.6872 26.2545 18.8334C27.1083 17.9797 28.2663 17.5 29.4737 17.5C31.2037 17.5 32.7026 18.4525 33.4729 19.8684H29.4737C28.8944 19.8684 28.3388 20.0985 27.9292 20.5082C27.5196 20.9178 27.2895 21.4733 27.2895 22.0526V23.7368V24.2368H27.7895H36.2105H36.7105V23.7368V22.0526C36.7105 20.8452 37.1902 19.6872 38.044 18.8334C38.8977 17.9797 40.0557 17.5 41.2632 17.5C42.9932 17.5 44.4921 18.4525 45.2624 19.8684H41.2632C40.6839 19.8684 40.1283 20.0985 39.7187 20.5082C39.3091 20.9178 39.0789 21.4733 39.0789 22.0526V38.7937V39.38L39.6579 39.2874C41.2279 39.0362 42.7922 38.3326 44.2821 37.6625C44.4675 37.579 44.6518 37.4961 44.8349 37.4147C46.3471 36.7417 47.7802 36.1628 49.1842 36.0472V38.413C47.3803 38.5427 45.6038 39.3421 43.9297 40.0954L43.8685 40.123C41.9723 40.9762 40.2009 41.7632 38.4505 41.7632C36.7089 41.7632 34.9421 40.9765 33.0475 40.1231L32.9921 40.0981C31.1636 39.2744 29.211 38.3947 27.2337 38.3947ZM36.7105 27.1053V26.6053H36.2105H27.7895H27.2895V27.1053V30.4737V30.9737H27.7895H36.2105H36.7105V30.4737V27.1053ZM36.7105 33.8421V33.3421H36.2105H27.7895H27.2895V33.8421V35.5263V35.9807L27.7418 36.024C29.0604 36.1504 30.3977 36.6708 31.7981 37.289C32.0584 37.4039 32.3214 37.5225 32.5866 37.6421C33.7221 38.154 34.8976 38.6839 36.0724 39.0216L36.7105 39.205V38.5411V33.8421ZM16.5 48.2267V45.9548C20.1591 44.3081 23.7004 42.7632 27.2337 42.7632C28.9753 42.7632 30.7422 43.5498 32.6368 44.4033L32.6922 44.4282C34.5206 45.2519 36.4732 46.1316 38.4505 46.1316C40.4382 46.1316 42.3968 45.2502 44.2296 44.4255L44.2788 44.4033C45.9945 43.6314 47.6037 42.9141 49.1842 42.7841V45.1498C47.3803 45.2795 45.6038 46.0789 43.9297 46.8323L43.8685 46.8598C41.9723 47.713 40.2009 48.5 38.4505 48.5C36.7089 48.5 34.9421 47.7133 33.0475 46.8599L32.9921 46.835C31.1636 46.0112 29.211 45.1316 27.2337 45.1316C23.5955 45.1316 19.9943 46.6583 16.5 48.2267Z" fill="#0C3F54" stroke="black"/>
</svg>
