<svg width="65" height="66" viewBox="0 0 65 66" fill="none" xmlns="http://www.w3.org/2000/svg">
<circle cx="32.5" cy="33.4619" r="32" stroke="black"/>
<path d="M39.7666 30.3627H39.768C40.4027 30.3644 41.0314 30.2402 41.6178 29.9973C42.2041 29.7544 42.7365 29.3975 43.184 28.9475L43.1851 28.9463L48.3184 23.8165C48.3184 23.8164 48.3184 23.8164 48.3185 23.8163C48.5485 23.5862 48.5538 23.2287 48.3583 23.0134L48.3582 23.0132C48.3066 22.9564 48.2441 22.9106 48.1743 22.8787C48.1045 22.8467 48.0289 22.8293 47.9522 22.8274C47.8754 22.8256 47.7991 22.8393 47.7278 22.8679C47.6566 22.8964 47.5919 22.9391 47.5376 22.9934L47.5373 22.9937L42.962 27.5657L42.9619 27.5658C42.7145 27.8128 42.3792 27.9516 42.0296 27.9516C41.68 27.9516 41.3448 27.8129 41.0974 27.5659C40.569 27.0386 40.6133 26.1828 41.1137 25.6825L45.669 21.1271C45.669 21.1271 45.669 21.1271 45.669 21.1271C45.7233 21.0729 45.7659 21.0082 45.7944 20.937C45.8229 20.8657 45.8366 20.7895 45.8348 20.7128C45.8329 20.6361 45.8155 20.5606 45.7836 20.4908C45.7517 20.4211 45.7061 20.3586 45.6493 20.307L39.7666 30.3627ZM39.7666 30.3627H39.2167C39.2166 30.3627 39.2166 30.3627 39.2166 30.3627M39.7666 30.3627L45.0866 42.9253M45.0866 42.9253L36.0879 33.9267M45.0866 42.9253C45.7529 43.5915 46.1273 44.4952 46.1273 45.4374C46.1274 46.3797 45.7531 47.2833 45.0869 47.9497C44.4207 48.616 43.5171 48.9903 42.5748 48.9904C41.6326 48.9905 40.7289 48.6162 40.0626 47.95M45.0866 42.9253L31.3473 37.4927M36.0879 33.9267C36.0631 33.9019 36.0435 33.8725 36.03 33.8401M36.0879 33.9267L35.7344 34.2802L27.2981 36.0511M36.0879 33.9267L35.7346 34.2804L44.733 43.2789L44.733 43.2789C45.3056 43.8514 45.6273 44.6278 45.6273 45.4375C45.6274 46.2471 45.3058 47.0236 44.7333 47.5961C44.1609 48.1687 43.3844 48.4903 42.5748 48.4904C41.7694 48.4904 40.9968 48.1722 40.4251 47.6054M36.03 33.8401C36.0166 33.8077 36.0097 33.773 36.0097 33.738C36.0097 33.703 36.0166 33.6683 36.03 33.6359M36.03 33.8401L35.5682 34.0316C35.5681 34.0316 35.5681 34.0316 35.5681 34.0316C35.5296 33.9385 35.5097 33.8388 35.5097 33.738C35.5097 33.6373 35.5296 33.5375 35.5681 33.4444M36.03 33.8401L35.5681 33.4444M36.03 33.6359C36.0435 33.6035 36.0631 33.5741 36.0879 33.5493M36.03 33.6359L35.5682 33.4444C35.5682 33.4444 35.5681 33.4444 35.5681 33.4444M36.03 33.6359L35.5681 33.4444M36.0879 33.5493L38.4619 31.1753M36.0879 33.5493L35.7344 33.1958C35.7344 33.1957 35.7345 33.1956 35.7346 33.1956M36.0879 33.5493L35.7346 33.1956M38.4619 31.1753C38.561 31.0762 38.6786 30.9975 38.8081 30.9439C38.9376 30.8902 39.0764 30.8626 39.2166 30.8627V30.3627M38.4619 31.1753L38.1084 30.8218M38.4619 31.1753L38.1082 30.8219L35.7346 33.1956M39.2166 30.3627C39.0107 30.3626 38.8069 30.4032 38.6168 30.482C38.4266 30.5608 38.2539 30.6762 38.1084 30.8218M39.2166 30.3627L38.1084 30.8218M38.1084 30.8218L35.7346 33.1956M40.4251 47.6054L40.4209 47.6007L40.4131 47.5927L34.4098 41.4881L34.409 41.4873C33.9117 40.9838 33.6336 40.3042 33.6353 39.5965V39.5953L33.6353 39.226L33.6353 39.2246C33.6341 38.8143 33.4729 38.4208 33.1859 38.1276L33.1771 38.1186L33.1678 38.11L32.4093 37.4094L32.0693 37.776M40.4251 47.6054C40.4221 47.6024 40.4191 47.5994 40.4161 47.5964L40.1826 47.83L40.0626 47.95M40.4251 47.6054L40.4283 47.6089L40.4343 47.6156L40.0626 47.95M32.0693 37.776L32.4085 37.4087L32.4089 37.409C32.1201 37.1414 31.741 36.9927 31.3473 36.9927L31.3459 36.9927C31.2121 36.993 31.0789 37.0104 30.9495 37.0442M32.0693 37.776C31.8729 37.5939 31.615 37.4927 31.3473 37.4927M32.0693 37.776L32.8286 38.4773C33.0244 38.6774 33.1345 38.946 33.1353 39.226V39.5953C33.1333 40.4349 33.4633 41.2413 34.0533 41.8387L40.0566 47.9433L40.0626 47.95M30.9495 37.0442C30.638 37.1257 30.3174 37.1668 29.9955 37.1667H29.9953C28.984 37.1666 28.0141 36.7654 27.2981 36.0511M30.9495 37.0442C30.9494 37.0443 30.9493 37.0443 30.9492 37.0443L31.0759 37.528M30.9495 37.0442L31.0759 37.528M27.2981 36.0511L26.9446 36.4047M27.2981 36.0511L26.9446 36.4047M26.9446 36.4047L27.2978 36.0508L21.6015 30.3544L21.6012 30.3542C19.3336 28.0898 17.9557 25.0384 17.9619 22.4372V22.436C17.9619 20.8742 18.4637 19.5977 19.3631 18.7066L26.9446 36.4047ZM26.9446 36.4047L21.2479 30.708L31.3473 37.4927M26.9446 36.4047C27.7543 37.2127 28.8514 37.6665 29.9953 37.6667C30.3599 37.6668 30.7231 37.6202 31.0759 37.528M31.0759 37.528C31.1645 37.5048 31.2557 37.4929 31.3473 37.4927M45.2827 20.1667L45.2803 20.1667C45.1175 20.1668 44.9614 20.2316 44.8463 20.3467L44.8461 20.3469L40.2948 24.8976L40.2946 24.8978C40.0472 25.1449 39.7119 25.2836 39.3622 25.2836C39.0126 25.2836 38.6773 25.1449 38.4299 24.8978L38.4297 24.8976C37.9029 24.3708 37.9455 23.5153 38.4464 23.0145L38.4464 23.0144L43.0017 18.4605C43.0017 18.4605 43.0017 18.4604 43.0017 18.4604C43.056 18.4062 43.0986 18.3415 43.1271 18.2703C43.1556 18.1991 43.1693 18.1228 43.1675 18.0461C43.1656 17.9694 43.1482 17.8939 43.1163 17.8241C43.0844 17.7544 43.0387 17.6919 42.982 17.6404L45.2827 20.1667ZM45.2827 20.1667C45.4181 20.1659 45.5488 20.216 45.6492 20.3069L45.2827 20.1667ZM42.6153 17.5L42.6132 17.5C42.4502 17.5002 42.294 17.565 42.1788 17.6802L37.0488 22.8102L37.0478 22.8112C36.5977 23.2588 36.2408 23.7913 35.9979 24.3778C35.755 24.9643 35.6308 25.5931 35.6326 26.2279L35.6326 26.2293L35.6326 26.7776V26.778L42.6153 17.5ZM42.6153 17.5C42.7507 17.4993 42.8815 17.5493 42.9818 17.6402L42.6153 17.5ZM32.7997 30.2614L35.1734 27.887L19.3632 18.7065C19.4697 18.6011 19.6136 18.5421 19.7634 18.5425C19.9133 18.5429 20.0569 18.6027 20.1628 18.7087L20.163 18.7089L31.7148 30.2614C31.7149 30.2614 31.715 30.2615 31.715 30.2615C31.7862 30.3327 31.8707 30.3892 31.9637 30.4278L32.1551 29.9659L31.9637 30.4278C32.0567 30.4664 32.1565 30.4862 32.2573 30.4862C32.358 30.4862 32.4578 30.4664 32.5508 30.4278C32.6438 30.3892 32.7283 30.3327 32.7995 30.2615C32.7996 30.2615 32.7996 30.2614 32.7997 30.2614Z" fill="#0C3F54" stroke="black"/>
<mask id="path-3-inside-1_2202_11483" fill="white">
<path d="M29.9953 39.8C28.2875 39.7965 26.65 39.1198 25.438 37.9167L24.514 36.9927C24.414 36.8929 24.2786 36.8369 24.1373 36.8369C23.9961 36.8369 23.8606 36.8929 23.7607 36.9927L18.094 42.63C17.084 43.64 16.7233 45.1267 17.2233 46.5827C17.2513 46.6647 17.2845 46.7448 17.3227 46.8227C17.9953 48.2 19.3007 49 20.7287 49C21.2198 49.0012 21.7062 48.9049 22.1598 48.7168C22.6135 48.5287 23.0252 48.2524 23.3713 47.904L30.9287 40.3107C30.9605 40.2782 30.9848 40.2392 31 40.1964C31.0152 40.1535 31.0209 40.1079 31.0167 40.0627V40.0453C31.0137 40.0038 31.0023 39.9632 30.9833 39.9262C30.9642 39.8891 30.9379 39.8563 30.9058 39.8297C30.8737 39.8031 30.8366 39.7832 30.7966 39.7714C30.7567 39.7595 30.7147 39.7559 30.6733 39.7607C30.4482 39.7856 30.2219 39.7988 29.9953 39.8Z"/>
</mask>
<path d="M29.9953 39.8C28.2875 39.7965 26.65 39.1198 25.438 37.9167L24.514 36.9927C24.414 36.8929 24.2786 36.8369 24.1373 36.8369C23.9961 36.8369 23.8606 36.8929 23.7607 36.9927L18.094 42.63C17.084 43.64 16.7233 45.1267 17.2233 46.5827C17.2513 46.6647 17.2845 46.7448 17.3227 46.8227C17.9953 48.2 19.3007 49 20.7287 49C21.2198 49.0012 21.7062 48.9049 22.1598 48.7168C22.6135 48.5287 23.0252 48.2524 23.3713 47.904L30.9287 40.3107C30.9605 40.2782 30.9848 40.2392 31 40.1964C31.0152 40.1535 31.0209 40.1079 31.0167 40.0627V40.0453C31.0137 40.0038 31.0023 39.9632 30.9833 39.9262C30.9642 39.8891 30.9379 39.8563 30.9058 39.8297C30.8737 39.8031 30.8366 39.7832 30.7966 39.7714C30.7567 39.7595 30.7147 39.7559 30.6733 39.7607C30.4482 39.7856 30.2219 39.7988 29.9953 39.8Z" fill="#0C3F54"/>
<path d="M25.438 37.9167L24.7309 38.6238L24.7335 38.6264L25.438 37.9167ZM24.514 36.9927L25.2211 36.2856L25.2202 36.2847L24.514 36.9927ZM23.7607 36.9927L24.4659 37.7016L24.4669 37.7006L23.7607 36.9927ZM18.094 42.63L17.3887 41.9211L17.3869 41.9229L18.094 42.63ZM17.2233 46.5827L18.1698 46.2598L18.1691 46.2579L17.2233 46.5827ZM17.3227 46.8227L18.2212 46.3838L18.2205 46.3822L17.3227 46.8227ZM20.7287 49L20.7311 48H20.7287V49ZM23.3713 47.904L22.6625 47.1986L22.6619 47.1993L23.3713 47.904ZM30.9287 40.3107L31.6375 41.0161L31.6428 41.0106L30.9287 40.3107ZM31.0167 40.0627H30.0167V40.1094L30.021 40.1559L31.0167 40.0627ZM31.0167 40.0453H32.0167V40.0097L32.0141 39.9742L31.0167 40.0453ZM30.6733 39.7607L30.7835 40.7546L30.7882 40.754L30.6733 39.7607ZM29.9974 38.8C28.5528 38.797 27.1677 38.2246 26.1425 37.2069L24.7335 38.6264C26.1324 40.0149 28.0223 40.7959 29.9933 40.8L29.9974 38.8ZM26.1451 37.2096L25.2211 36.2856L23.8069 37.6998L24.7309 38.6238L26.1451 37.2096ZM25.2202 36.2847C24.9328 35.998 24.5433 35.8369 24.1373 35.8369V37.8369C24.0138 37.8369 23.8952 37.7879 23.8077 37.7006L25.2202 36.2847ZM24.1373 35.8369C23.7313 35.8369 23.3419 35.998 23.0544 36.2847L24.4669 37.7006C24.3794 37.7879 24.2609 37.8369 24.1373 37.8369V35.8369ZM23.0554 36.2837L17.3887 41.9211L18.7993 43.3389L24.4659 37.7016L23.0554 36.2837ZM17.3869 41.9229C16.1016 43.2082 15.6559 45.0971 16.2775 46.9074L18.1691 46.2579C17.7908 45.1562 18.0664 44.0718 18.8011 43.3371L17.3869 41.9229ZM16.2769 46.9055C16.3186 47.0277 16.368 47.1472 16.4249 47.2631L18.2205 46.3822C18.201 46.3425 18.1841 46.3016 18.1698 46.2598L16.2769 46.9055ZM16.4241 47.2615C17.2608 48.9746 18.9102 50 20.7287 50V48C19.6912 48 18.7299 47.4253 18.2212 46.3838L16.4241 47.2615ZM20.7262 50C21.3496 50.0015 21.9671 49.8793 22.5429 49.6405L21.7767 47.7931C21.4453 47.9306 21.0899 48.0009 20.7311 48L20.7262 50ZM22.5429 49.6405C23.1187 49.4017 23.6415 49.051 24.0808 48.6087L22.6619 47.1993C22.409 47.4538 22.1082 47.6557 21.7767 47.7931L22.5429 49.6405ZM24.0801 48.6094L31.6374 41.0161L30.2199 39.6052L22.6625 47.1986L24.0801 48.6094ZM31.6428 41.0106C31.7764 40.8743 31.8786 40.7106 31.9424 40.5308L30.0576 39.862C30.091 39.7678 30.1445 39.6821 30.2145 39.6107L31.6428 41.0106ZM31.9424 40.5308C32.0062 40.351 32.0301 40.1594 32.0123 39.9694L30.021 40.1559C30.0117 40.0564 30.0242 39.9561 30.0576 39.862L31.9424 40.5308ZM32.0167 40.0627V40.0453H30.0167V40.0627H32.0167ZM32.0141 39.9742C32.0015 39.7979 31.9534 39.6261 31.8726 39.4689L30.0939 40.3834C30.0513 40.3004 30.0258 40.2096 30.0192 40.1165L32.0141 39.9742ZM31.8726 39.4689C31.7918 39.3118 31.6801 39.1726 31.5441 39.0599L30.2675 40.5995C30.1956 40.5399 30.1366 40.4664 30.0939 40.3834L31.8726 39.4689ZM31.5441 39.0599C31.408 38.9471 31.2506 38.863 31.0812 38.8127L30.512 40.73C30.4225 40.7035 30.3394 40.6591 30.2675 40.5995L31.5441 39.0599ZM31.0812 38.8127C30.9118 38.7624 30.734 38.747 30.5585 38.7673L30.7882 40.754C30.6955 40.7648 30.6015 40.7566 30.512 40.73L31.0812 38.8127ZM30.5631 38.7668C30.3727 38.7879 30.1814 38.799 29.9899 38.8L30.0008 40.8C30.2623 40.7986 30.5236 40.7834 30.7835 40.7546L30.5631 38.7668Z" fill="black" mask="url(#path-3-inside-1_2202_11483)"/>
</svg>
