<svg width="65" height="66" viewBox="0 0 65 66" fill="none" xmlns="http://www.w3.org/2000/svg">
<circle cx="32.5" cy="33.4619" r="32" stroke="black"/>
<path d="M48.1871 45.1667C46.4184 45.1667 44.9825 43.7243 44.9825 41.9492L48.1871 38.731C49.9582 38.731 51.3982 40.1677 51.3982 41.9492C51.3986 42.8015 51.0606 43.6192 50.4585 44.2225C49.8564 44.8258 49.0395 45.1654 48.1871 45.1667ZM48.1871 45.1667L48.1864 44.6667C46.6961 44.6662 45.4825 43.4499 45.4825 41.9492L45.4825 41.948C45.4816 41.5919 45.5509 41.2391 45.6864 40.9098C45.8219 40.5805 46.021 40.2812 46.2722 40.0288C46.5235 39.7765 46.822 39.5762 47.1507 39.4393C47.4794 39.3024 47.8319 39.2316 48.1879 39.231C49.6821 39.2314 50.8982 40.4437 50.8982 41.9492V41.9495C50.8985 42.6693 50.6131 43.3598 50.1046 43.8693C49.5962 44.3788 48.9062 44.6656 48.1864 44.6667C48.1867 44.6667 48.1869 44.6667 48.1871 44.6667V45.1667ZM37.4989 48.4985V46.2986H49.983C50.2411 46.2986 50.4031 46.3649 50.5102 46.44C50.6218 46.5182 50.7051 46.6281 50.7669 46.757C50.8294 46.8871 50.8635 47.0235 50.8813 47.1318C50.89 47.1847 50.8943 47.2278 50.8964 47.2558C50.897 47.2637 50.8974 47.2704 50.8977 47.2756C50.8979 47.2795 50.898 47.2826 50.8981 47.2849L50.8982 47.2866V47.2862C50.8982 47.286 50.8982 47.2858 51.3982 47.2826L37.4989 48.4985ZM22.9125 35.9069L22.9342 35.9384C23.1986 36.6708 23.7652 37.3414 24.5768 37.6472C24.5775 37.6474 24.5781 37.6476 24.5787 37.6479L26.736 38.4784L26.3407 38.8989H22.2373L22.2388 34.3383L22.8929 35.8612L22.9125 35.9069ZM30.8991 30.2674V33.4862L27.9198 32.3816L26.6744 29.3616L26.4903 28.9151L26.0377 29.0836L25.0153 29.4644L24.5284 29.6458L24.7283 30.1254L26.2962 33.886L26.3793 34.0851L26.5811 34.1614L31.6419 36.0724C31.8551 36.1709 32.0219 36.3484 32.1069 36.5676C32.1935 36.7908 32.1882 37.0392 32.0922 37.2586L32.0917 37.2597C32.045 37.3673 31.9774 37.4645 31.893 37.5459C31.8086 37.6273 31.7089 37.6912 31.5997 37.7339C31.4905 37.7766 31.3739 37.7974 31.2567 37.795C31.1395 37.7925 31.0239 37.767 30.9165 37.7197L30.9029 37.7137L30.8889 37.7086L25.3876 35.6695L25.3876 35.6694L25.3828 35.6677C25.16 35.5877 24.9712 35.4093 24.8656 35.1769L22.3599 29.0138C22.1321 28.4331 22.12 27.5264 22.4651 26.7779C22.7924 26.0681 23.4368 25.4996 24.5906 25.4996H29.3904C30.5583 25.4996 31.1453 25.9783 31.3873 26.2197C31.5353 26.3764 32.751 27.7325 33.778 28.8782C34.3807 29.5504 34.9184 30.1502 35.1374 30.3928L35.1606 30.4186L35.1872 30.4409C35.3248 30.5562 35.4244 30.7101 35.4734 30.8827L36.6149 35.8244L36.6207 35.8496L36.6291 35.8741C36.7066 36.1001 36.6918 36.3477 36.588 36.5629C36.4844 36.7777 36.3004 36.9432 36.0759 37.0234C35.9653 37.0618 35.8483 37.078 35.7314 37.0711C35.614 37.0641 35.4992 37.0339 35.3936 36.9823C35.288 36.9307 35.1936 36.8586 35.116 36.7703C35.0448 36.6893 34.989 36.596 34.9512 36.4951L33.9375 31.3884L33.8941 31.1699L33.7027 31.056L31.6548 29.8377L30.8991 29.3881V30.2674ZM43.2654 40.6111C43.6921 40.9465 43.9638 41.4407 43.9641 42.1294C43.964 43.4985 42.8712 44.4987 41.4242 44.4987H37.4989V40.5587L41.4602 40.0569C42.2018 40.0681 42.8311 40.2696 43.2654 40.6111ZM30.076 20.5726C30.076 22.2722 28.7065 23.6461 27.0177 23.6461C25.3303 23.6461 23.9587 22.2719 23.9587 20.5726C23.9587 18.8735 25.3301 17.5 27.0177 17.5C28.7067 17.5 30.076 18.8732 30.076 20.5726ZM14.5735 40.6989H35.6989V48.4985H13.5V41.6196C13.5 41.282 13.6283 41.0722 13.8016 40.9353C13.9898 40.7865 14.2664 40.6989 14.5735 40.6989Z" fill="#0C3F54" stroke="black"/>
</svg>
