<svg width="65" height="66" viewBox="0 0 65 66" fill="none" xmlns="http://www.w3.org/2000/svg">
<circle cx="32.5" cy="33.4619" r="32" stroke="black"/>
<path d="M30.3228 23.0045C31.0036 23.6854 31.7845 23.9993 32.797 23.9993C35.7353 23.9993 37.3553 20.693 35.5602 18.3594C34.776 17.3397 33.1691 16.7731 31.9495 17.0861M30.3228 23.0045L30.6764 22.651M30.3228 23.0045C29.0837 21.7653 28.9458 19.8463 29.9922 18.4018C30.3908 17.8516 31.2702 17.2605 31.9495 17.0861M30.3228 23.0045L30.6763 22.651M30.6764 22.651C31.2582 23.2328 31.9095 23.4993 32.797 23.4993C35.3175 23.4993 36.7079 20.6714 35.1639 18.6642L35.1638 18.6642C34.8416 18.2452 34.3313 17.8988 33.7519 17.6945C33.1718 17.49 32.5679 17.4436 32.0738 17.5704L31.9495 17.0861M30.6764 22.651C30.6764 22.651 30.6764 22.651 30.6763 22.651M30.6764 22.651L32.0738 17.5704M31.9495 17.0861L32.0738 17.5704M32.0738 17.5704C31.8053 17.6394 31.4679 17.8006 31.1445 18.018C30.8204 18.2359 30.5509 18.4828 30.3971 18.6952C29.491 19.946 29.6156 21.5901 30.6763 22.651M32.0738 17.5704L30.6763 22.651M43.9171 31.8207C43.7595 31.8554 43.5927 31.8958 43.4346 31.9385C42.1822 32.2761 41.292 32.7617 40.7445 33.3276C40.2333 33.856 40.0066 34.4665 40.0648 35.16C40.1516 35.0415 40.2507 34.902 40.3644 34.7395C40.5261 34.5083 40.6867 34.2831 40.8156 34.1062C40.9333 33.9445 41.0487 33.7892 41.1053 33.7277C41.1053 33.7277 41.1054 33.7276 41.1054 33.7276L41.4734 34.0661C41.5416 33.992 41.5522 34.0195 41.5231 34.1118C41.5231 34.1118 41.5231 34.1118 41.5231 34.1118L43.9171 31.8207ZM43.9171 31.8207C43.6649 32.3477 43.4155 33.1185 43.0612 34.3753C42.8204 35.2288 42.5227 35.6474 42.1591 35.8766C42.027 35.9599 41.9494 35.9899 41.854 36.0059C41.7378 36.0254 41.5701 36.0277 41.2459 36.0044L41.2458 36.0044C41.188 36.0002 41.1313 35.9956 41.0764 35.9906L43.9171 31.8207ZM38.0832 43.3394L38.0832 43.3393C38.2343 43.0899 38.3726 42.8814 38.4753 42.7523C38.5015 42.7193 38.5317 42.6834 38.5641 42.6506L38.5658 42.6488C38.5848 42.6295 38.6568 42.5561 38.7635 42.5117C38.818 42.489 38.9865 42.4299 39.1781 42.5196C39.386 42.6169 39.446 42.8039 39.4617 42.8829C39.478 42.9644 39.4711 43.0323 39.4672 43.0621C39.4626 43.0987 39.4551 43.1307 39.4489 43.1544L39.4488 43.1546C39.3495 43.5291 39.0816 44.1126 38.7951 44.655C38.5053 45.2038 38.1617 45.7761 37.8837 46.1278C37.8682 46.1474 37.8533 46.1662 37.8391 46.1842C37.8678 46.1907 37.8979 46.1974 37.9296 46.2044C37.949 46.2087 37.969 46.2131 37.9895 46.2177C38.8823 46.4166 39.4602 46.3554 40.041 46.0661L38.0832 43.3394ZM38.0832 43.3394C37.7909 43.8219 37.34 44.4567 36.9386 44.9724C36.8427 45.0958 36.7509 45.2105 36.6662 45.3132C36.6489 45.1777 36.6351 45.0259 36.6259 44.8631C36.5864 44.1641 36.6395 43.4178 36.7675 43.055L36.296 42.8887M38.0832 43.3394L38.8161 43.4495M38.9386 43.8574C38.9386 43.8574 38.9385 43.8574 38.9385 43.8574L38.7016 43.7139C38.377 44.4307 37.8531 45.3602 37.4914 45.8178L38.9386 43.8574ZM38.9386 43.8574C39.0839 43.6175 39.1959 43.4527 39.2581 43.3745C39.2731 43.3556 39.2787 43.3501 39.2762 43.3526C39.2749 43.3539 39.2666 43.3624 39.2521 43.3739C39.2418 43.3822 39.2051 43.411 39.1478 43.4349C39.1071 43.4518 38.9754 43.4998 38.8161 43.4495M38.9386 43.8574L38.8161 43.4495M38.8161 43.4495C38.8834 43.2858 38.9351 43.1412 38.9655 43.0265C38.9841 42.9563 38.9623 42.9558 38.9104 43.0118L38.4822 42.8983C38.4822 42.8984 38.4822 42.8984 38.4821 42.8985L38.9104 43.0119C38.8554 43.0712 38.7666 43.1941 38.6563 43.3652C38.5322 43.2673 38.4925 43.136 38.4811 43.0787C38.4665 43.0059 38.4734 42.95 38.4753 42.9353C38.478 42.9141 38.4816 42.9006 38.4821 42.8986L38.4821 42.8985C38.4475 43.0292 38.3731 43.2229 38.2707 43.4529C38.2707 43.4529 38.2707 43.4529 38.2707 43.4529C38.1729 43.6726 38.0496 43.9254 37.9109 44.188C37.6302 44.7195 37.3202 45.228 37.0992 45.5077L37.1318 45.5335L37.0992 45.5077C37.0864 45.5239 37.0736 45.54 37.0609 45.556C36.9469 45.7001 36.8379 45.8377 36.7652 45.9517C36.7583 45.9625 36.7511 45.9741 36.7438 45.9862C36.6158 46.123 36.5225 46.2039 36.4833 46.2039C36.1067 46.2039 35.9714 43.8087 36.296 42.8887M36.296 42.8887L36.7675 43.055C37.0538 42.2435 37.7595 41.4524 38.8536 40.7785C39.9427 40.1077 41.3809 39.5764 43.0586 39.2705L43.1327 39.257M36.296 42.8887L43.1327 39.257M43.1327 39.257C42.8774 39.7176 42.5745 40.4558 42.3896 41.0541M43.1327 39.257L40.0411 46.0661C40.7062 45.7346 41.1234 45.1878 41.6132 43.5829M42.3896 41.0541C42.3896 41.0541 42.3897 41.0541 42.3897 41.0541L42.8674 41.2017L42.3896 41.0541ZM42.3896 41.0541C42.1766 41.7437 41.8272 42.8815 41.6132 43.5829M41.6132 43.5829L42.0914 43.7288L41.6132 43.5829C41.6132 43.5829 41.6132 43.5829 41.6132 43.5829ZM18.1485 21.1871C18.1477 21.1866 18.1469 21.1861 18.1461 21.1856C18.6538 21.0871 19.4439 21.0513 20.2739 21.0831C21.1563 21.117 22.0158 21.2245 22.5532 21.3808C24.6957 22.0038 27.0825 23.5352 29.0853 25.6073L29.0853 25.6074C30.0434 26.5985 31.7737 28.7576 32.2361 29.5276C32.2361 29.5277 32.2362 29.5278 32.2363 29.5279L32.2368 29.5287C32.2643 29.5747 32.3055 29.6434 32.3507 29.7C32.3513 29.7007 32.352 29.7016 32.3527 29.7025C32.3808 29.738 32.5305 29.9271 32.797 29.9271C33.0635 29.9271 33.2132 29.738 33.2412 29.7025C33.242 29.7016 33.2427 29.7007 33.2432 29.7C33.2885 29.6434 33.3297 29.5747 33.3572 29.5287L33.3576 29.528L33.3577 29.528C33.3581 29.5273 33.3605 29.5235 33.3658 29.5153C33.3715 29.5065 33.3792 29.4951 33.3889 29.4808C33.4083 29.4523 33.4339 29.4153 33.4654 29.3705C33.5284 29.2809 33.612 29.164 33.7107 29.0276C33.9078 28.7551 34.1624 28.4083 34.4263 28.0537L34.4264 28.0537C35.6344 26.4305 37.3572 24.6509 38.6914 23.6391C39.2708 23.1996 40.1105 22.6949 40.964 22.2571C41.821 21.8174 42.6551 21.4642 43.2222 21.3109C43.678 21.1878 44.6374 21.1117 45.6381 21.1063C46.3289 21.1026 46.9781 21.1329 47.4425 21.1889C45.0096 22.7309 42.165 25.3341 40.1616 27.8442C36.0245 33.0277 33.6496 38.888 32.7984 46.014C32.2501 41.3228 31.0951 37.4313 29.1061 33.5195C26.6048 28.6004 22.4388 23.9049 18.1485 21.1871ZM18.3835 30.1813H18.4404C20.7876 30.1813 23.5452 30.8177 25.048 31.6742L25.0481 31.6742C26.3217 32.3999 27.2212 33.5409 27.5657 34.8307C27.6808 35.2615 27.7286 35.9525 27.7054 36.5495C27.6998 36.6927 27.6903 36.8241 27.678 36.9396C27.4973 36.7862 27.2769 36.5805 27.0279 36.332C26.4315 35.7365 25.7004 34.9239 25.0113 34.0696L25.0113 34.0696L24.6527 33.6251L23.8147 34.1593L24.0953 34.7311C24.5781 35.7157 25.1552 36.4872 26.1728 37.5403L26.1729 37.5403L26.5807 37.9622L26.5624 37.9692C25.0637 38.5428 24.0532 38.5748 23.2569 38.1641C22.4352 37.7403 21.7041 36.7789 20.9458 35.0127C19.9117 32.604 19.0872 31.0216 18.3835 30.1813ZM41.0473 33.958C41.0476 33.9566 41.0479 33.9557 41.0479 33.9556L41.0473 33.958ZM39.5773 35.3084L39.9911 35.2595L39.5773 35.3084ZM40.816 36.4477C40.8153 36.45 40.8151 36.4504 40.8157 36.4487L40.816 36.4477ZM41.8436 34.4023C41.8436 34.4023 41.8429 34.4031 41.8416 34.4044L41.8436 34.4023ZM26.3542 44.2364L26.3542 44.2363C26.1662 43.5395 25.8563 42.6564 25.6448 42.246C25.6994 42.2584 25.7561 42.2718 25.8149 42.2862C26.4697 42.4471 27.2694 42.7086 27.8009 42.9623L27.8009 42.9623C28.2438 43.1737 28.673 43.4909 29.0129 43.8416C29.3591 44.1988 29.5767 44.5535 29.6503 44.8259C29.7091 45.0432 29.7345 45.4429 29.7138 45.8353C29.7134 45.8438 29.7129 45.8523 29.7124 45.8607C29.4965 45.6052 29.2615 45.282 29.074 44.9646C28.9826 44.8099 28.8925 44.6661 28.8196 44.558C28.784 44.5052 28.7479 44.4539 28.7153 44.4123C28.7001 44.3931 28.6772 44.3649 28.6498 44.3373C28.6371 44.3245 28.6115 44.2996 28.5762 44.2745C28.5758 44.2742 28.5753 44.2739 28.5747 44.2734C28.5573 44.2607 28.4448 44.1787 28.2796 44.1787C28.0965 44.1787 27.9247 44.2741 27.8297 44.4367C27.7587 44.5582 27.7554 44.6753 27.7556 44.7215C27.7562 44.8246 27.7832 44.921 27.8006 44.9774C27.841 45.1084 27.91 45.269 27.9886 45.4322C28.1488 45.7651 28.3853 46.1843 28.6317 46.5518L28.738 46.7103C28.1587 46.7689 27.705 46.6726 27.4711 46.515L27.4711 46.515C27.0659 46.2422 26.7663 45.7649 26.3542 44.2364ZM28.7514 44.6658C28.7508 44.6637 28.7506 44.6627 28.7507 44.6627C28.7507 44.6627 28.751 44.6637 28.7514 44.6658Z" fill="#0C3F54" stroke="black"/>
</svg>
