<svg width="1441" height="766" viewBox="0 0 1441 766" fill="none" xmlns="http://www.w3.org/2000/svg">
<g clip-path="url(#clip0_1_943)">
<rect width="1441" height="766" fill="#0C3F54"/>
<path d="M-109.869 -214.131L-428.198 104.198L-316.576 215.82L-111.95 11.1939L593.806 716.95L389.18 921.576L500.802 1033.2L819.131 714.869L-109.869 -214.131Z" fill="#EAF6FB" fill-opacity="0.05"/>
<path d="M-60.9289 341.107C-52.4385 332.552 -42.3309 325.78 -31.2351 321.207C-20.1375 316.636 -8.28289 314.358 3.59713 314.521C15.4612 314.074 27.2218 316.074 38.1475 320.396C49.0732 324.718 58.9268 331.27 67.0976 339.642C75.5315 347.868 82.1434 357.778 86.529 368.764C90.9129 379.748 92.9798 391.579 92.6003 403.524C92.5576 415.414 90.1407 427.239 85.4933 438.309C80.8459 449.384 74.0616 459.476 65.5369 468.001C57.0122 476.525 46.9182 483.311 35.8457 487.957C24.775 492.604 12.9499 495.021 1.05826 495.066C-10.8867 495.445 -22.716 493.377 -33.7001 488.993C-44.6859 484.607 -54.596 477.995 -62.8234 469.563C-71.1954 461.392 -77.7455 451.537 -82.0675 440.611C-86.3896 429.685 -88.3894 417.925 -87.9449 406.063C-88.0838 394.083 -85.7593 382.137 -81.1105 370.962C-76.4634 359.788 -69.5946 349.625 -60.9289 341.107Z" fill="#EAF6FB" fill-opacity="0.05"/>
<path d="M146.998 549.034C155.488 540.478 165.596 533.706 176.693 529.135C187.789 524.562 199.646 522.285 211.524 522.447C223.388 522 235.149 524 246.074 528.322C257 532.644 266.854 539.196 275.026 547.57C283.446 555.792 290.048 565.699 294.426 576.678C298.805 587.657 300.869 599.477 300.489 611.412C300.446 623.302 298.03 635.127 293.384 646.2C288.735 657.272 281.95 667.364 273.426 675.889C264.901 684.414 254.807 691.2 243.736 695.847C232.664 700.493 220.839 702.91 208.947 702.954C197.002 703.334 185.174 701.267 174.189 696.881C163.203 692.496 153.293 685.884 145.067 677.453C136.693 669.281 130.143 659.425 125.821 648.5C121.499 637.574 119.499 625.813 119.944 613.951C119.805 601.972 122.129 590.026 126.778 578.85C131.425 567.677 138.294 557.514 146.96 548.996" fill="#EAF6FB" fill-opacity="0.05"/>
<path d="M1423 823.329L1741.33 505L1629.71 393.378L1425.08 598.004L719.325 -107.751L923.951 -312.378L812.329 -424L494 -105.671L1423 823.329Z" fill="#EAF6FB" fill-opacity="0.05"/>
<path d="M1374.06 268.091C1365.57 276.646 1355.46 283.419 1344.37 287.992C1333.27 292.563 1321.41 294.841 1309.53 294.678C1297.67 295.124 1285.91 293.124 1274.98 288.802C1264.06 284.48 1254.2 277.928 1246.03 269.556C1237.6 261.331 1230.99 251.42 1226.6 240.435C1222.22 229.451 1220.15 217.62 1220.53 205.675C1220.57 193.785 1222.99 181.96 1227.64 170.889C1232.28 159.815 1239.07 149.722 1247.59 141.198C1256.12 132.673 1266.21 125.887 1277.29 121.241C1288.36 116.594 1300.18 114.177 1312.07 114.133C1324.02 113.753 1335.85 115.822 1346.83 120.206C1357.82 124.591 1367.73 131.203 1375.95 139.635C1384.33 147.806 1390.88 157.661 1395.2 168.587C1399.52 179.513 1401.52 191.273 1401.08 203.136C1401.21 215.115 1398.89 227.061 1394.24 238.236C1389.59 249.41 1382.73 259.573 1374.06 268.091Z" fill="#EAF6FB" fill-opacity="0.05"/>
<path d="M1166.13 60.1646C1157.64 68.7202 1147.54 75.4925 1136.44 80.0637C1125.34 84.6366 1113.49 86.9128 1101.61 86.7516C1089.74 87.1979 1077.98 85.1981 1067.06 80.876C1056.13 76.554 1046.28 70.0022 1038.11 61.6285C1029.69 53.4062 1023.08 43.4993 1018.7 32.5204C1014.33 21.5415 1012.26 9.72086 1012.64 -2.21369C1012.68 -14.1035 1015.1 -25.9288 1019.75 -37.0012C1024.4 -48.0738 1031.18 -58.166 1039.71 -66.6907C1048.23 -75.2155 1058.32 -82.0015 1069.39 -86.6489C1080.47 -91.2946 1092.29 -93.7114 1104.18 -93.7559C1116.13 -94.1354 1127.96 -92.0686 1138.94 -87.683C1149.93 -83.2973 1159.84 -76.6855 1168.06 -68.255C1176.44 -60.0826 1182.99 -50.2272 1187.31 -39.3015C1191.63 -28.3757 1193.63 -16.6152 1193.19 -4.75282C1193.33 7.2268 1191 19.1727 1186.35 30.3479C1181.71 41.5214 1174.84 51.6843 1166.17 60.2023" fill="#EAF6FB" fill-opacity="0.05"/>
</g>
<defs>
<clipPath id="clip0_1_943">
<rect width="1441" height="766" fill="white"/>
</clipPath>
</defs>
</svg>
