<svg width="286" height="141" viewBox="0 0 286 141" fill="none" xmlns="http://www.w3.org/2000/svg">
<g clip-path="url(#clip0_2757_13874)">
<path d="M20.9474 121.748H38.7026C45.8944 121.748 49.4868 118.641 49.4868 112.513C49.4868 106.54 45.8921 103.592 38.7026 103.669H20.9474V121.748ZM38.5668 68.2072H20.9474V84.1418H38.5668C39.7951 84.1418 41.4236 84.4533 44.4589 81.8167C45.8873 80.4986 46.6801 78.6371 46.6801 76.1527C46.6801 71.2635 43.3163 68.6272 40.5594 68.3954L38.5668 68.2072ZM0 140.993V49.0059H38.7026C39.5451 49.0059 40.538 49.078 41.8378 49.1577C44.1576 49.4508 46.457 49.8912 48.7228 50.4761C51.8124 51.2031 54.7963 52.333 57.6001 53.8367C60.4048 55.5755 62.7854 57.9353 64.5637 60.7395C66.6927 64.0872 67.7849 68.0049 67.6988 71.9878C67.6203 82.3092 63.2565 87.9735 59.357 90.4576C56.6075 92.4712 55.0006 93.0145 54.4649 93.0145C55.8108 93.406 57.1164 93.9277 58.3644 94.5717C60.2066 95.5858 61.9946 96.698 63.7208 97.9037C68.5417 101.09 71.577 106.907 71.577 114.121C71.577 132.05 59.3356 141 34.8528 140.971L0 140.993Z" fill="black"/>
<path d="M165.757 73.6396H144.796V140.993H165.757V73.6396Z" fill="black"/>
<path d="M86.582 0V59.5163H107.544V21.2584H240.078V59.5163H261.039V0H86.582Z" fill="#1F9ED3"/>
<path d="M204.925 73.6396H183.963V140.993H204.925V73.6396Z" fill="black"/>
<path d="M261.539 73.6396L250.519 90.1684L239.584 73.6396H216.858L239.277 107.161L216.858 140.993H239.584L250.519 124.464L261.539 140.993H284.265L262.146 107.161L284.265 73.6396H261.539Z" fill="black"/>
<path d="M143.346 47.414C143.34 45.8313 143.654 44.2639 144.268 42.8091C144.882 41.3542 145.784 40.042 146.917 38.954C147.992 37.811 149.287 36.9047 150.722 36.2916C152.157 35.6784 153.702 35.3718 155.259 35.3905C156.827 35.3712 158.382 35.6774 159.829 36.2902C161.275 36.9031 162.583 37.8097 163.672 38.954C164.787 40.062 165.673 41.3844 166.277 42.8438C166.882 44.3036 167.193 45.8706 167.193 47.4537C167.193 49.0367 166.882 50.6041 166.277 52.0635C165.673 53.523 164.787 54.8453 163.672 55.9536C162.583 57.098 161.275 58.0042 159.829 58.6171C158.382 59.2299 156.827 59.5362 155.259 59.5171C153.702 59.5358 152.157 59.2289 150.722 58.6158C149.287 58.0026 147.992 57.0963 146.917 55.9536C145.777 54.8542 144.871 53.5292 144.257 52.0599C143.642 50.5909 143.332 49.0095 143.346 47.414Z" fill="#1F9ED3"/>
<path d="M182.511 47.4139C182.505 45.8312 182.819 44.2639 183.434 42.809C184.048 41.3542 184.949 40.0419 186.082 38.954C187.157 37.811 188.452 36.9047 189.888 36.2915C191.323 35.6783 192.867 35.3718 194.424 35.3905C195.991 35.3721 197.545 35.679 198.99 36.2918C200.436 36.9047 201.743 37.8106 202.83 38.954C203.945 40.0619 204.831 41.3843 205.436 42.8438C206.041 44.3035 206.352 45.8705 206.352 47.4536C206.352 49.0367 206.041 50.604 205.436 52.0634C204.831 53.5229 203.945 54.8453 202.83 55.9536C201.742 57.0979 200.434 58.0042 198.987 58.617C197.54 59.2299 195.985 59.5361 194.417 59.5171C192.86 59.5358 191.316 59.2289 189.881 58.6157C188.445 58.0026 187.15 57.0963 186.075 55.9536C184.935 54.8541 184.029 53.5291 183.415 52.0598C182.801 50.5909 182.49 49.0095 182.504 47.4139" fill="#1F9ED3"/>
<path d="M107.544 84.4242V73.6392H86.582V141H107.544V113.23C107.544 103.662 111.207 89.0596 132.334 93.0359V73.3277C109.479 70.235 107.544 84.4242 107.544 84.4242Z" fill="black"/>
</g>
<defs>
<clipPath id="clip0_2757_13874">
<rect width="286" height="141" fill="white"/>
</clipPath>
</defs>
</svg>
