<svg width="79" height="15" viewBox="0 0 79 15" fill="none" xmlns="http://www.w3.org/2000/svg">
<path d="M7.97621 14.8032C6.92288 14.8032 5.94954 14.6299 5.05621 14.2832C4.16288 13.9232 3.38954 13.4232 2.73621 12.7832C2.08288 12.1432 1.56954 11.3899 1.19621 10.5232C0.836211 9.65656 0.656211 8.70989 0.656211 7.68323C0.656211 6.65656 0.836211 5.70989 1.19621 4.84323C1.56954 3.97656 2.08288 3.22323 2.73621 2.58323C3.40288 1.94323 4.18288 1.44989 5.07621 1.10323C5.96954 0.743227 6.94288 0.563227 7.99621 0.563227C9.00954 0.563227 9.96288 0.73656 10.8562 1.08323C11.7495 1.41656 12.5029 1.92323 13.1162 2.60323L12.1762 3.54323C11.6029 2.95656 10.9695 2.53656 10.2762 2.28323C9.58288 2.01656 8.83621 1.88323 8.03621 1.88323C7.19621 1.88323 6.41621 2.02989 5.69621 2.32323C4.97621 2.60323 4.34954 3.00989 3.81621 3.54323C3.28288 4.06323 2.86288 4.67656 2.55621 5.38323C2.26288 6.07656 2.11621 6.84323 2.11621 7.68323C2.11621 8.52323 2.26288 9.29656 2.55621 10.0032C2.86288 10.6966 3.28288 11.3099 3.81621 11.8432C4.34954 12.3632 4.97621 12.7699 5.69621 13.0632C6.41621 13.3432 7.19621 13.4832 8.03621 13.4832C8.83621 13.4832 9.58288 13.3499 10.2762 13.0832C10.9695 12.8166 11.6029 12.3899 12.1762 11.8032L13.1162 12.7432C12.5029 13.4232 11.7495 13.9366 10.8562 14.2832C9.96288 14.6299 9.00288 14.8032 7.97621 14.8032ZM21.8712 14.6832V0.683227H23.3512V13.4032H31.1912V14.6832H21.8712ZM39.2486 14.6832V0.683227H40.7286V14.6832H39.2486ZM52.2037 7.46323H59.6037V8.74323H52.2037V7.46323ZM52.3637 14.6832H50.8837V0.683227H60.4837V1.96323H52.3637V14.6832ZM70.46 7.46323H77.86V8.74323H70.46V7.46323ZM70.62 14.6832H69.14V0.683227H78.74V1.96323H70.62V14.6832Z" fill="white"/>
</svg>
