<svg width="136" height="16" viewBox="0 0 136 16" fill="none" xmlns="http://www.w3.org/2000/svg">
<path d="M6.53621 15.0327C4.74954 15.0327 3.34288 14.5193 2.31621 13.4927C1.28954 12.466 0.776211 10.946 0.776211 8.93266V0.912658H2.25621V8.87266C2.25621 10.526 2.62954 11.746 3.37621 12.5327C4.12288 13.3193 5.17621 13.7127 6.53621 13.7127C7.90954 13.7127 8.96954 13.3193 9.71621 12.5327C10.4629 11.746 10.8362 10.526 10.8362 8.87266V0.912658H12.2762V8.93266C12.2762 10.946 11.7629 12.466 10.7362 13.4927C9.72288 14.5193 8.32288 15.0327 6.53621 15.0327ZM22.3361 14.9127V0.912658H23.8161V13.6327H31.6561V14.9127H22.3361ZM45.0995 15.0327C43.3128 15.0327 41.9062 14.5193 40.8795 13.4927C39.8528 12.466 39.3395 10.946 39.3395 8.93266V0.912658H40.8195V8.87266C40.8195 10.526 41.1928 11.746 41.9395 12.5327C42.6862 13.3193 43.7395 13.7127 45.0995 13.7127C46.4728 13.7127 47.5328 13.3193 48.2795 12.5327C49.0262 11.746 49.3995 10.526 49.3995 8.87266V0.912658H50.8395V8.93266C50.8395 10.946 50.3262 12.466 49.2995 13.4927C48.2862 14.5193 46.8862 15.0327 45.0995 15.0327ZM64.0793 14.9127L59.3593 0.912658H60.8793L65.2993 14.0927H64.5393L69.0993 0.912658H70.4593L74.9593 14.0927H74.2393L78.6993 0.912658H80.1193L75.3993 14.9127H73.8393L69.5393 2.41266H69.9393L65.6193 14.9127H64.0793ZM85.7632 14.9127L92.1632 0.912658H93.6232L100.023 14.9127H98.4632L92.5832 1.77266H93.1832L87.3032 14.9127H85.7632ZM88.2832 11.1727L88.7232 9.97266H96.8632L97.3032 11.1727H88.2832ZM109.956 14.9127V2.19266H105.036V0.912658H116.356V2.19266H111.436V14.9127H109.956ZM129.96 15.0327C128.174 15.0327 126.767 14.5193 125.74 13.4927C124.714 12.466 124.2 10.946 124.2 8.93266V0.912658H125.68V8.87266C125.68 10.526 126.054 11.746 126.8 12.5327C127.547 13.3193 128.6 13.7127 129.96 13.7127C131.334 13.7127 132.394 13.3193 133.14 12.5327C133.887 11.746 134.26 10.526 134.26 8.87266V0.912658H135.7V8.93266C135.7 10.946 135.187 12.466 134.16 13.4927C133.147 14.5193 131.747 15.0327 129.96 15.0327Z" fill="white"/>
</svg>
